%TF.GenerationSoftware,KiCad,Pcbnew,(6.0.5)*%
%TF.CreationDate,2022-07-18T17:09:20-07:00*%
%TF.ProjectId,rectangle-clock,72656374-616e-4676-9c65-2d636c6f636b,rev?*%
%TF.SameCoordinates,Original*%
%TF.FileFunction,Soldermask,Top*%
%TF.FilePolarity,Negative*%
%FSLAX46Y46*%
G04 Gerber Fmt 4.6, Leading zero omitted, Abs format (unit mm)*
G04 Created by KiCad (PCBNEW (6.0.5)) date 2022-07-18 17:09:20*
%MOMM*%
%LPD*%
G01*
G04 APERTURE LIST*
G04 Aperture macros list*
%AMRoundRect*
0 Rectangle with rounded corners*
0 $1 Rounding radius*
0 $2 $3 $4 $5 $6 $7 $8 $9 X,Y pos of 4 corners*
0 Add a 4 corners polygon primitive as box body*
4,1,4,$2,$3,$4,$5,$6,$7,$8,$9,$2,$3,0*
0 Add four circle primitives for the rounded corners*
1,1,$1+$1,$2,$3*
1,1,$1+$1,$4,$5*
1,1,$1+$1,$6,$7*
1,1,$1+$1,$8,$9*
0 Add four rect primitives between the rounded corners*
20,1,$1+$1,$2,$3,$4,$5,0*
20,1,$1+$1,$4,$5,$6,$7,0*
20,1,$1+$1,$6,$7,$8,$9,0*
20,1,$1+$1,$8,$9,$2,$3,0*%
G04 Aperture macros list end*
%ADD10R,2.200000X1.200000*%
%ADD11R,6.400000X5.800000*%
%ADD12RoundRect,0.500000X-1.500000X-0.500000X1.500000X-0.500000X1.500000X0.500000X-1.500000X0.500000X0*%
%ADD13RoundRect,0.500000X0.500000X-1.750000X0.500000X1.750000X-0.500000X1.750000X-0.500000X-1.750000X0*%
%ADD14C,3.200000*%
%ADD15R,1.400000X1.400000*%
%ADD16C,1.400000*%
%ADD17R,1.600000X1.400000*%
%ADD18R,1.400000X1.150000*%
%ADD19R,1.150000X1.400000*%
%ADD20R,1.700000X1.700000*%
%ADD21O,1.700000X1.700000*%
%ADD22R,1.800000X1.000000*%
%ADD23R,3.000000X3.000000*%
%ADD24C,3.000000*%
%ADD25R,1.600000X1.600000*%
%ADD26O,1.600000X1.600000*%
%ADD27C,1.600000*%
%ADD28R,4.500000X2.000000*%
%ADD29RoundRect,0.243750X-0.243750X-0.456250X0.243750X-0.456250X0.243750X0.456250X-0.243750X0.456250X0*%
G04 APERTURE END LIST*
D10*
%TO.C,U2*%
X203968000Y-130434000D03*
D11*
X197668000Y-128154000D03*
D10*
X203968000Y-125874000D03*
%TD*%
D12*
%TO.C,J2*%
X190968000Y-131832000D03*
X187268000Y-134332000D03*
D13*
X184968000Y-129032000D03*
%TD*%
D14*
%TO.C,H4*%
X215000000Y-140000000D03*
%TD*%
D15*
%TO.C,DS1*%
X139954000Y-101346000D03*
D16*
X142494000Y-101346000D03*
X145034000Y-101346000D03*
X147574000Y-101346000D03*
X150114000Y-101346000D03*
X152654000Y-101346000D03*
X155194000Y-101346000D03*
X155194000Y-86106000D03*
X152654000Y-86106000D03*
X150114000Y-86106000D03*
X147574000Y-86106000D03*
X145034000Y-86106000D03*
X142494000Y-86106000D03*
X139954000Y-86106000D03*
%TD*%
D17*
%TO.C,SW3*%
X146368000Y-114844000D03*
X154368000Y-114844000D03*
X146368000Y-119344000D03*
X154368000Y-119344000D03*
%TD*%
D18*
%TO.C,C4*%
X174312000Y-140296000D03*
X174312000Y-138596000D03*
%TD*%
D19*
%TO.C,C2*%
X156630000Y-124968000D03*
X158330000Y-124968000D03*
%TD*%
D20*
%TO.C,J1*%
X113538000Y-139700000D03*
D21*
X113538000Y-137160000D03*
X113538000Y-134620000D03*
X113538000Y-132080000D03*
X113538000Y-129540000D03*
X113538000Y-127000000D03*
X113538000Y-124460000D03*
%TD*%
D22*
%TO.C,Y1*%
X118618000Y-127782000D03*
X118618000Y-130282000D03*
%TD*%
D19*
%TO.C,C7*%
X207176000Y-126238000D03*
X208876000Y-126238000D03*
%TD*%
D23*
%TO.C,BT1*%
X99567984Y-92526314D03*
D24*
X99567984Y-113016314D03*
%TD*%
D15*
%TO.C,DS2*%
X139954000Y-80651000D03*
D16*
X142494000Y-80651000D03*
X145034000Y-80651000D03*
X147574000Y-80651000D03*
X150114000Y-80651000D03*
X152654000Y-80651000D03*
X155194000Y-80651000D03*
X155194000Y-65411000D03*
X152654000Y-65411000D03*
X150114000Y-65411000D03*
X147574000Y-65411000D03*
X145034000Y-65411000D03*
X142494000Y-65411000D03*
X139954000Y-65411000D03*
%TD*%
D25*
%TO.C,U4*%
X207015000Y-84846000D03*
D26*
X204475000Y-84846000D03*
X201935000Y-84846000D03*
X199395000Y-84846000D03*
X196855000Y-84846000D03*
X194315000Y-84846000D03*
X191775000Y-84846000D03*
X189235000Y-84846000D03*
X186695000Y-84846000D03*
X184155000Y-84846000D03*
X181615000Y-84846000D03*
X179075000Y-84846000D03*
X179075000Y-92466000D03*
X181615000Y-92466000D03*
X184155000Y-92466000D03*
X186695000Y-92466000D03*
X189235000Y-92466000D03*
X191775000Y-92466000D03*
X194315000Y-92466000D03*
X196855000Y-92466000D03*
X199395000Y-92466000D03*
X201935000Y-92466000D03*
X204475000Y-92466000D03*
X207015000Y-92466000D03*
%TD*%
D18*
%TO.C,R2*%
X191770000Y-95670000D03*
X191770000Y-97370000D03*
%TD*%
D19*
%TO.C,R4*%
X176950000Y-114300000D03*
X178650000Y-114300000D03*
%TD*%
D27*
%TO.C,R6*%
X150011000Y-59944000D03*
X146611000Y-59944000D03*
%TD*%
D19*
%TO.C,R5*%
X106846000Y-124460000D03*
X108546000Y-124460000D03*
%TD*%
%TO.C,C5*%
X207176000Y-129540000D03*
X208876000Y-129540000D03*
%TD*%
D14*
%TO.C,H2*%
X215000000Y-60000000D03*
%TD*%
D19*
%TO.C,R9*%
X141898000Y-114554000D03*
X143598000Y-114554000D03*
%TD*%
%TO.C,R13*%
X142660000Y-138176000D03*
X144360000Y-138176000D03*
%TD*%
D25*
%TO.C,U1*%
X121676000Y-127772000D03*
D26*
X121676000Y-130312000D03*
X121676000Y-132852000D03*
X121676000Y-135392000D03*
X129296000Y-135392000D03*
X129296000Y-132852000D03*
X129296000Y-130312000D03*
X129296000Y-127772000D03*
%TD*%
D14*
%TO.C,H3*%
X85000000Y-140000000D03*
%TD*%
D19*
%TO.C,R8*%
X124372000Y-114300000D03*
X126072000Y-114300000D03*
%TD*%
D14*
%TO.C,H1*%
X85000000Y-60000000D03*
%TD*%
D28*
%TO.C,Y2*%
X168402000Y-139446000D03*
X159902000Y-139446000D03*
%TD*%
D19*
%TO.C,R11*%
X204890000Y-109220000D03*
X206590000Y-109220000D03*
%TD*%
D18*
%TO.C,R3*%
X137414000Y-122340000D03*
X137414000Y-124040000D03*
%TD*%
%TO.C,R1*%
X134874000Y-122340000D03*
X134874000Y-124040000D03*
%TD*%
D19*
%TO.C,R12*%
X159170000Y-114554000D03*
X160870000Y-114554000D03*
%TD*%
%TO.C,C6*%
X199810000Y-114300000D03*
X201510000Y-114300000D03*
%TD*%
D25*
%TO.C,U3*%
X134884000Y-134864000D03*
D26*
X137424000Y-134864000D03*
X139964000Y-134864000D03*
X142504000Y-134864000D03*
X145044000Y-134864000D03*
X147584000Y-134864000D03*
X150124000Y-134864000D03*
X152664000Y-134864000D03*
X155204000Y-134864000D03*
X157744000Y-134864000D03*
X160284000Y-134864000D03*
X162824000Y-134864000D03*
X165364000Y-134864000D03*
X167904000Y-134864000D03*
X167904000Y-127244000D03*
X165364000Y-127244000D03*
X162824000Y-127244000D03*
X160284000Y-127244000D03*
X157744000Y-127244000D03*
X155204000Y-127244000D03*
X152664000Y-127244000D03*
X150124000Y-127244000D03*
X147584000Y-127244000D03*
X145044000Y-127244000D03*
X142504000Y-127244000D03*
X139964000Y-127244000D03*
X137424000Y-127244000D03*
X134884000Y-127244000D03*
%TD*%
D17*
%TO.C,SW4*%
X163640000Y-114844000D03*
X171640000Y-114844000D03*
X163640000Y-119344000D03*
X171640000Y-119344000D03*
%TD*%
D19*
%TO.C,R7*%
X140550000Y-59436000D03*
X138850000Y-59436000D03*
%TD*%
%TO.C,R10*%
X204890000Y-111760000D03*
X206590000Y-111760000D03*
%TD*%
D17*
%TO.C,SW2*%
X128842000Y-114590000D03*
X136842000Y-114590000D03*
X128842000Y-119090000D03*
X136842000Y-119090000D03*
%TD*%
D29*
%TO.C,D1*%
X142572500Y-141224000D03*
X144447500Y-141224000D03*
%TD*%
D20*
%TO.C,J3*%
X213360000Y-101600000D03*
D21*
X213360000Y-104140000D03*
X213360000Y-106680000D03*
X213360000Y-109220000D03*
X213360000Y-111760000D03*
X213360000Y-114300000D03*
%TD*%
D18*
%TO.C,C3*%
X153992000Y-140296000D03*
X153992000Y-138596000D03*
%TD*%
D19*
%TO.C,C1*%
X152566000Y-124968000D03*
X154266000Y-124968000D03*
%TD*%
D17*
%TO.C,SW1*%
X183960000Y-109510000D03*
X191960000Y-109510000D03*
X183960000Y-114010000D03*
X191960000Y-114010000D03*
%TD*%
M02*
