%TF.GenerationSoftware,KiCad,Pcbnew,(6.0.5)*%
%TF.CreationDate,2022-07-18T17:09:20-07:00*%
%TF.ProjectId,rectangle-clock,72656374-616e-4676-9c65-2d636c6f636b,rev?*%
%TF.SameCoordinates,Original*%
%TF.FileFunction,Paste,Top*%
%TF.FilePolarity,Positive*%
%FSLAX46Y46*%
G04 Gerber Fmt 4.6, Leading zero omitted, Abs format (unit mm)*
G04 Created by KiCad (PCBNEW (6.0.5)) date 2022-07-18 17:09:20*
%MOMM*%
%LPD*%
G01*
G04 APERTURE LIST*
G04 Aperture macros list*
%AMRoundRect*
0 Rectangle with rounded corners*
0 $1 Rounding radius*
0 $2 $3 $4 $5 $6 $7 $8 $9 X,Y pos of 4 corners*
0 Add a 4 corners polygon primitive as box body*
4,1,4,$2,$3,$4,$5,$6,$7,$8,$9,$2,$3,0*
0 Add four circle primitives for the rounded corners*
1,1,$1+$1,$2,$3*
1,1,$1+$1,$4,$5*
1,1,$1+$1,$6,$7*
1,1,$1+$1,$8,$9*
0 Add four rect primitives between the rounded corners*
20,1,$1+$1,$2,$3,$4,$5,0*
20,1,$1+$1,$4,$5,$6,$7,0*
20,1,$1+$1,$6,$7,$8,$9,0*
20,1,$1+$1,$8,$9,$2,$3,0*%
G04 Aperture macros list end*
%ADD10R,3.050000X2.750000*%
%ADD11R,2.200000X1.200000*%
%ADD12R,1.600000X1.400000*%
%ADD13R,1.400000X1.150000*%
%ADD14R,1.150000X1.400000*%
%ADD15R,1.800000X1.000000*%
%ADD16R,4.500000X2.000000*%
%ADD17RoundRect,0.243750X-0.243750X-0.456250X0.243750X-0.456250X0.243750X0.456250X-0.243750X0.456250X0*%
G04 APERTURE END LIST*
D10*
%TO.C,U2*%
X199343000Y-129679000D03*
X199343000Y-126629000D03*
X195993000Y-129679000D03*
X195993000Y-126629000D03*
D11*
X203968000Y-130434000D03*
X203968000Y-125874000D03*
%TD*%
D12*
%TO.C,SW3*%
X146368000Y-114844000D03*
X154368000Y-114844000D03*
X146368000Y-119344000D03*
X154368000Y-119344000D03*
%TD*%
D13*
%TO.C,C4*%
X174312000Y-140296000D03*
X174312000Y-138596000D03*
%TD*%
D14*
%TO.C,C2*%
X156630000Y-124968000D03*
X158330000Y-124968000D03*
%TD*%
D15*
%TO.C,Y1*%
X118618000Y-127782000D03*
X118618000Y-130282000D03*
%TD*%
D14*
%TO.C,C7*%
X207176000Y-126238000D03*
X208876000Y-126238000D03*
%TD*%
D13*
%TO.C,R2*%
X191770000Y-95670000D03*
X191770000Y-97370000D03*
%TD*%
D14*
%TO.C,R4*%
X176950000Y-114300000D03*
X178650000Y-114300000D03*
%TD*%
%TO.C,R5*%
X106846000Y-124460000D03*
X108546000Y-124460000D03*
%TD*%
%TO.C,C5*%
X207176000Y-129540000D03*
X208876000Y-129540000D03*
%TD*%
%TO.C,R9*%
X141898000Y-114554000D03*
X143598000Y-114554000D03*
%TD*%
%TO.C,R13*%
X142660000Y-138176000D03*
X144360000Y-138176000D03*
%TD*%
%TO.C,R8*%
X124372000Y-114300000D03*
X126072000Y-114300000D03*
%TD*%
D16*
%TO.C,Y2*%
X168402000Y-139446000D03*
X159902000Y-139446000D03*
%TD*%
D14*
%TO.C,R11*%
X204890000Y-109220000D03*
X206590000Y-109220000D03*
%TD*%
D13*
%TO.C,R3*%
X137414000Y-122340000D03*
X137414000Y-124040000D03*
%TD*%
%TO.C,R1*%
X134874000Y-122340000D03*
X134874000Y-124040000D03*
%TD*%
D14*
%TO.C,R12*%
X159170000Y-114554000D03*
X160870000Y-114554000D03*
%TD*%
%TO.C,C6*%
X199810000Y-114300000D03*
X201510000Y-114300000D03*
%TD*%
D12*
%TO.C,SW4*%
X163640000Y-114844000D03*
X171640000Y-114844000D03*
X163640000Y-119344000D03*
X171640000Y-119344000D03*
%TD*%
D14*
%TO.C,R7*%
X140550000Y-59436000D03*
X138850000Y-59436000D03*
%TD*%
%TO.C,R10*%
X204890000Y-111760000D03*
X206590000Y-111760000D03*
%TD*%
D12*
%TO.C,SW2*%
X128842000Y-114590000D03*
X136842000Y-114590000D03*
X128842000Y-119090000D03*
X136842000Y-119090000D03*
%TD*%
D17*
%TO.C,D1*%
X142572500Y-141224000D03*
X144447500Y-141224000D03*
%TD*%
D13*
%TO.C,C3*%
X153992000Y-140296000D03*
X153992000Y-138596000D03*
%TD*%
D14*
%TO.C,C1*%
X152566000Y-124968000D03*
X154266000Y-124968000D03*
%TD*%
D12*
%TO.C,SW1*%
X183960000Y-109510000D03*
X191960000Y-109510000D03*
X183960000Y-114010000D03*
X191960000Y-114010000D03*
%TD*%
M02*
