%TF.GenerationSoftware,KiCad,Pcbnew,(6.0.5)*%
%TF.CreationDate,2022-07-20T22:20:02-07:00*%
%TF.ProjectId,rectangle-clock,72656374-616e-4676-9c65-2d636c6f636b,rev?*%
%TF.SameCoordinates,PX4c4b400PY8a48640*%
%TF.FileFunction,Soldermask,Top*%
%TF.FilePolarity,Negative*%
%FSLAX46Y46*%
G04 Gerber Fmt 4.6, Leading zero omitted, Abs format (unit mm)*
G04 Created by KiCad (PCBNEW (6.0.5)) date 2022-07-20 22:20:02*
%MOMM*%
%LPD*%
G01*
G04 APERTURE LIST*
G04 Aperture macros list*
%AMRoundRect*
0 Rectangle with rounded corners*
0 $1 Rounding radius*
0 $2 $3 $4 $5 $6 $7 $8 $9 X,Y pos of 4 corners*
0 Add a 4 corners polygon primitive as box body*
4,1,4,$2,$3,$4,$5,$6,$7,$8,$9,$2,$3,0*
0 Add four circle primitives for the rounded corners*
1,1,$1+$1,$2,$3*
1,1,$1+$1,$4,$5*
1,1,$1+$1,$6,$7*
1,1,$1+$1,$8,$9*
0 Add four rect primitives between the rounded corners*
20,1,$1+$1,$2,$3,$4,$5,0*
20,1,$1+$1,$4,$5,$6,$7,0*
20,1,$1+$1,$6,$7,$8,$9,0*
20,1,$1+$1,$8,$9,$2,$3,0*%
G04 Aperture macros list end*
%ADD10C,3.200000*%
%ADD11R,1.400000X1.400000*%
%ADD12C,1.400000*%
%ADD13R,1.600000X1.400000*%
%ADD14R,1.400000X1.150000*%
%ADD15C,2.000000*%
%ADD16R,1.150000X1.400000*%
%ADD17R,1.700000X1.700000*%
%ADD18O,1.700000X1.700000*%
%ADD19R,1.800000X1.000000*%
%ADD20RoundRect,0.500000X0.500000X-1.750000X0.500000X1.750000X-0.500000X1.750000X-0.500000X-1.750000X0*%
%ADD21RoundRect,0.500000X-1.500000X-0.500000X1.500000X-0.500000X1.500000X0.500000X-1.500000X0.500000X0*%
%ADD22R,3.000000X3.000000*%
%ADD23C,3.000000*%
%ADD24R,1.600000X1.600000*%
%ADD25O,1.600000X1.600000*%
%ADD26C,1.600000*%
%ADD27R,4.500000X2.000000*%
%ADD28R,2.200000X1.200000*%
%ADD29R,6.400000X5.800000*%
%ADD30RoundRect,0.243750X-0.243750X-0.456250X0.243750X-0.456250X0.243750X0.456250X-0.243750X0.456250X0*%
G04 APERTURE END LIST*
D10*
%TO.C,H4*%
X135000000Y5000000D03*
%TD*%
D11*
%TO.C,DS1*%
X59954000Y43654000D03*
D12*
X62494000Y43654000D03*
X65034000Y43654000D03*
X67574000Y43654000D03*
X70114000Y43654000D03*
X72654000Y43654000D03*
X75194000Y43654000D03*
X75194000Y58894000D03*
X72654000Y58894000D03*
X70114000Y58894000D03*
X67574000Y58894000D03*
X65034000Y58894000D03*
X62494000Y58894000D03*
X59954000Y58894000D03*
%TD*%
D13*
%TO.C,SW3*%
X66368000Y30156000D03*
X74368000Y30156000D03*
X66368000Y25656000D03*
X74368000Y25656000D03*
%TD*%
D14*
%TO.C,C4*%
X90240000Y4610000D03*
X90240000Y6310000D03*
%TD*%
D15*
%TO.C,TP6*%
X116930000Y25010000D03*
%TD*%
D16*
%TO.C,C2*%
X76630000Y20032000D03*
X78330000Y20032000D03*
%TD*%
D17*
%TO.C,J1*%
X32160000Y13665000D03*
D18*
X32160000Y16205000D03*
X32160000Y18745000D03*
X32160000Y21285000D03*
X32160000Y23825000D03*
X32160000Y26365000D03*
X32160000Y28905000D03*
%TD*%
D19*
%TO.C,Y1*%
X38618000Y17218000D03*
X38618000Y14718000D03*
%TD*%
D16*
%TO.C,C7*%
X127176000Y18762000D03*
X128876000Y18762000D03*
%TD*%
D20*
%TO.C,J2*%
X104968000Y15968000D03*
D21*
X107268000Y10668000D03*
X110968000Y13168000D03*
%TD*%
D22*
%TO.C,BT1*%
X19567984Y52473686D03*
D23*
X19567984Y72963686D03*
%TD*%
D11*
%TO.C,DS2*%
X59954000Y64349000D03*
D12*
X62494000Y64349000D03*
X65034000Y64349000D03*
X67574000Y64349000D03*
X70114000Y64349000D03*
X72654000Y64349000D03*
X75194000Y64349000D03*
X75194000Y79589000D03*
X72654000Y79589000D03*
X70114000Y79589000D03*
X67574000Y79589000D03*
X65034000Y79589000D03*
X62494000Y79589000D03*
X59954000Y79589000D03*
%TD*%
D24*
%TO.C,U4*%
X127015000Y60154000D03*
D25*
X124475000Y60154000D03*
X121935000Y60154000D03*
X119395000Y60154000D03*
X116855000Y60154000D03*
X114315000Y60154000D03*
X111775000Y60154000D03*
X109235000Y60154000D03*
X106695000Y60154000D03*
X104155000Y60154000D03*
X101615000Y60154000D03*
X99075000Y60154000D03*
X99075000Y52534000D03*
X101615000Y52534000D03*
X104155000Y52534000D03*
X106695000Y52534000D03*
X109235000Y52534000D03*
X111775000Y52534000D03*
X114315000Y52534000D03*
X116855000Y52534000D03*
X119395000Y52534000D03*
X121935000Y52534000D03*
X124475000Y52534000D03*
X127015000Y52534000D03*
%TD*%
D14*
%TO.C,R2*%
X111770000Y49330000D03*
X111770000Y47630000D03*
%TD*%
D16*
%TO.C,R4*%
X96950000Y30700000D03*
X98650000Y30700000D03*
%TD*%
D26*
%TO.C,R6*%
X33210000Y49105000D03*
X33210000Y45705000D03*
%TD*%
D15*
%TO.C,TP3*%
X19330000Y40690000D03*
%TD*%
D16*
%TO.C,C5*%
X127176000Y15460000D03*
X128876000Y15460000D03*
%TD*%
D10*
%TO.C,H2*%
X135000000Y85000000D03*
%TD*%
D16*
%TO.C,R5*%
X24720000Y28910000D03*
X26420000Y28910000D03*
%TD*%
%TO.C,R9*%
X61898000Y30446000D03*
X63598000Y30446000D03*
%TD*%
%TO.C,R13*%
X62660000Y6824000D03*
X64360000Y6824000D03*
%TD*%
D24*
%TO.C,U1*%
X41676000Y17228000D03*
D25*
X41676000Y14688000D03*
X41676000Y12148000D03*
X41676000Y9608000D03*
X49296000Y9608000D03*
X49296000Y12148000D03*
X49296000Y14688000D03*
X49296000Y17228000D03*
%TD*%
D10*
%TO.C,H3*%
X5000000Y5000000D03*
%TD*%
D15*
%TO.C,TP4*%
X106550000Y25200000D03*
%TD*%
D16*
%TO.C,R8*%
X44372000Y30700000D03*
X46072000Y30700000D03*
%TD*%
D10*
%TO.C,H1*%
X5000000Y85000000D03*
%TD*%
D27*
%TO.C,Y2*%
X84610000Y5370000D03*
X76110000Y5370000D03*
%TD*%
D16*
%TO.C,R11*%
X124890000Y35780000D03*
X126590000Y35780000D03*
%TD*%
D28*
%TO.C,U2*%
X123968000Y14566000D03*
D29*
X117668000Y16846000D03*
D28*
X123968000Y19126000D03*
%TD*%
D14*
%TO.C,R3*%
X57414000Y22660000D03*
X57414000Y20960000D03*
%TD*%
%TO.C,R1*%
X54874000Y22660000D03*
X54874000Y20960000D03*
%TD*%
D16*
%TO.C,R12*%
X79170000Y30446000D03*
X80870000Y30446000D03*
%TD*%
%TO.C,C6*%
X119810000Y30700000D03*
X121510000Y30700000D03*
%TD*%
D24*
%TO.C,U3*%
X54884000Y10136000D03*
D25*
X57424000Y10136000D03*
X59964000Y10136000D03*
X62504000Y10136000D03*
X65044000Y10136000D03*
X67584000Y10136000D03*
X70124000Y10136000D03*
X72664000Y10136000D03*
X75204000Y10136000D03*
X77744000Y10136000D03*
X80284000Y10136000D03*
X82824000Y10136000D03*
X85364000Y10136000D03*
X87904000Y10136000D03*
X87904000Y17756000D03*
X85364000Y17756000D03*
X82824000Y17756000D03*
X80284000Y17756000D03*
X77744000Y17756000D03*
X75204000Y17756000D03*
X72664000Y17756000D03*
X70124000Y17756000D03*
X67584000Y17756000D03*
X65044000Y17756000D03*
X62504000Y17756000D03*
X59964000Y17756000D03*
X57424000Y17756000D03*
X54884000Y17756000D03*
%TD*%
D13*
%TO.C,SW4*%
X83640000Y30156000D03*
X91640000Y30156000D03*
X83640000Y25656000D03*
X91640000Y25656000D03*
%TD*%
D14*
%TO.C,R7*%
X33210000Y38630000D03*
X33210000Y36930000D03*
%TD*%
D16*
%TO.C,R10*%
X124880000Y33320000D03*
X126580000Y33320000D03*
%TD*%
D13*
%TO.C,SW2*%
X48842000Y30410000D03*
X56842000Y30410000D03*
X48842000Y25910000D03*
X56842000Y25910000D03*
%TD*%
D30*
%TO.C,D1*%
X62572500Y3776000D03*
X64447500Y3776000D03*
%TD*%
D17*
%TO.C,J3*%
X133360000Y43400000D03*
D18*
X133360000Y40860000D03*
X133360000Y38320000D03*
X133360000Y35780000D03*
X133360000Y33240000D03*
X133360000Y30700000D03*
%TD*%
D14*
%TO.C,C3*%
X71950000Y4510000D03*
X71950000Y6210000D03*
%TD*%
D15*
%TO.C,TP5*%
X111730000Y25010000D03*
%TD*%
%TO.C,TP1*%
X127210000Y24920000D03*
%TD*%
%TO.C,TP2*%
X14680000Y40760000D03*
%TD*%
D16*
%TO.C,C1*%
X72566000Y20032000D03*
X74266000Y20032000D03*
%TD*%
D13*
%TO.C,SW1*%
X103960000Y35490000D03*
X111960000Y35490000D03*
X103960000Y30990000D03*
X111960000Y30990000D03*
%TD*%
M02*
