M48
; DRILL file {KiCad (6.0.5)} date Wed Jul 20 22:20:25 2022
; FORMAT={-:-/ absolute / inch / decimal}
; #@! TF.CreationDate,2022-07-20T22:20:25-07:00
; #@! TF.GenerationSoftware,Kicad,Pcbnew,(6.0.5)
; #@! TF.FileFunction,MixedPlating,1,2
FMAT,2
INCH
; #@! TA.AperFunction,Plated,PTH,ViaDrill
T1C0.0160
; #@! TA.AperFunction,Plated,PTH,ComponentDrill
T2C0.0315
; #@! TA.AperFunction,Plated,PTH,ComponentDrill
T3C0.0354
; #@! TA.AperFunction,Plated,PTH,ComponentDrill
T4C0.0394
; #@! TA.AperFunction,Plated,PTH,ComponentDrill
T5C0.0591
; #@! TA.AperFunction,NonPlated,NPTH,ComponentDrill
T6C0.1260
%
G90
G05
T1
X1.3075Y1.3174
X2.3404Y1.0187
X2.3804Y0.2587
X2.6404Y0.8887
X2.7Y0.251
X3.5961Y1.452
X3.6204Y0.8887
X3.6421Y0.3811
X3.8394Y1.5685
X3.9469Y1.0862
X4.5604Y1.3987
X4.7315Y1.4079
X4.8256Y1.3122
T2
X1.3075Y1.9333
X1.3075Y1.7994
X1.6408Y0.6783
X1.6408Y0.5783
X1.6408Y0.4783
X1.6408Y0.3783
X1.9408Y0.6783
X1.9408Y0.5783
X1.9408Y0.4783
X1.9408Y0.3783
X2.1608Y0.6991
X2.1608Y0.3991
X2.2608Y0.6991
X2.2608Y0.3991
X2.3608Y0.6991
X2.3608Y0.3991
X2.4608Y0.6991
X2.4608Y0.3991
X2.5608Y0.6991
X2.5608Y0.3991
X2.6608Y0.6991
X2.6608Y0.3991
X2.7608Y0.6991
X2.7608Y0.3991
X2.8608Y0.6991
X2.8608Y0.3991
X2.9608Y0.6991
X2.9608Y0.3991
X3.0608Y0.6991
X3.0608Y0.3991
X3.1608Y0.6991
X3.1608Y0.3991
X3.2608Y0.6991
X3.2608Y0.3991
X3.3608Y0.6991
X3.3608Y0.3991
X3.4608Y0.6991
X3.4608Y0.3991
X3.9006Y2.3683
X3.9006Y2.0683
X4.0006Y2.3683
X4.0006Y2.0683
X4.1006Y2.3683
X4.1006Y2.0683
X4.2006Y2.3683
X4.2006Y2.0683
X4.3006Y2.3683
X4.3006Y2.0683
X4.4006Y2.3683
X4.4006Y2.0683
X4.5006Y2.3683
X4.5006Y2.0683
X4.6006Y2.3683
X4.6006Y2.0683
X4.7006Y2.3683
X4.7006Y2.0683
X4.8006Y2.3683
X4.8006Y2.0683
X4.9006Y2.3683
X4.9006Y2.0683
X5.0006Y2.3683
X5.0006Y2.0683
T3
X2.3604Y3.1334
X2.3604Y2.5334
X2.3604Y2.3187
X2.3604Y1.7187
X2.4604Y3.1334
X2.4604Y2.5334
X2.4604Y2.3187
X2.4604Y1.7187
X2.5604Y3.1334
X2.5604Y2.5334
X2.5604Y2.3187
X2.5604Y1.7187
X2.6604Y3.1334
X2.6604Y2.5334
X2.6604Y2.3187
X2.6604Y1.7187
X2.7604Y3.1334
X2.7604Y2.5334
X2.7604Y2.3187
X2.7604Y1.7187
X2.8604Y3.1334
X2.8604Y2.5334
X2.8604Y2.3187
X2.8604Y1.7187
X2.9604Y3.1334
X2.9604Y2.5334
X2.9604Y2.3187
X2.9604Y1.7187
T4
X0.578Y1.6047
X0.761Y1.602
X1.2661Y1.138
X1.2661Y1.038
X1.2661Y0.938
X1.2661Y0.838
X1.2661Y0.738
X1.2661Y0.638
X1.2661Y0.538
X4.1949Y0.9921
X4.3988Y0.9846
X4.6035Y0.9846
X5.0083Y0.9811
X5.2504Y1.7087
X5.2504Y1.6087
X5.2504Y1.5087
X5.2504Y1.4087
X5.2504Y1.3087
X5.2504Y1.2087
T5
X0.7704Y2.8726
X0.7704Y2.0659
T6
X0.1969Y3.3465
X0.1969Y0.1969
X5.315Y3.3465
X5.315Y0.1969
T4
G00X4.1326Y0.5794
M15
G01X4.1326Y0.6779
M16
G05
G00X4.1838Y0.42
M15
G01X4.2625Y0.42
M16
G05
G00X4.3294Y0.5184
M15
G01X4.4082Y0.5184
M16
G05
T0
M30
