%TF.GenerationSoftware,KiCad,Pcbnew,(6.0.5)*%
%TF.CreationDate,2022-07-20T22:20:02-07:00*%
%TF.ProjectId,rectangle-clock,72656374-616e-4676-9c65-2d636c6f636b,rev?*%
%TF.SameCoordinates,PX4c4b400PY8a48640*%
%TF.FileFunction,Legend,Top*%
%TF.FilePolarity,Positive*%
%FSLAX46Y46*%
G04 Gerber Fmt 4.6, Leading zero omitted, Abs format (unit mm)*
G04 Created by KiCad (PCBNEW (6.0.5)) date 2022-07-20 22:20:02*
%MOMM*%
%LPD*%
G01*
G04 APERTURE LIST*
G04 Aperture macros list*
%AMRoundRect*
0 Rectangle with rounded corners*
0 $1 Rounding radius*
0 $2 $3 $4 $5 $6 $7 $8 $9 X,Y pos of 4 corners*
0 Add a 4 corners polygon primitive as box body*
4,1,4,$2,$3,$4,$5,$6,$7,$8,$9,$2,$3,0*
0 Add four circle primitives for the rounded corners*
1,1,$1+$1,$2,$3*
1,1,$1+$1,$4,$5*
1,1,$1+$1,$6,$7*
1,1,$1+$1,$8,$9*
0 Add four rect primitives between the rounded corners*
20,1,$1+$1,$2,$3,$4,$5,0*
20,1,$1+$1,$4,$5,$6,$7,0*
20,1,$1+$1,$6,$7,$8,$9,0*
20,1,$1+$1,$8,$9,$2,$3,0*%
G04 Aperture macros list end*
%ADD10C,0.300000*%
%ADD11C,0.150000*%
%ADD12C,0.250000*%
%ADD13C,0.120000*%
%ADD14C,3.200000*%
%ADD15R,1.400000X1.400000*%
%ADD16C,1.400000*%
%ADD17R,1.600000X1.400000*%
%ADD18R,1.400000X1.150000*%
%ADD19C,2.000000*%
%ADD20R,1.150000X1.400000*%
%ADD21R,1.700000X1.700000*%
%ADD22O,1.700000X1.700000*%
%ADD23R,1.800000X1.000000*%
%ADD24RoundRect,0.500000X0.500000X-1.750000X0.500000X1.750000X-0.500000X1.750000X-0.500000X-1.750000X0*%
%ADD25RoundRect,0.500000X-1.500000X-0.500000X1.500000X-0.500000X1.500000X0.500000X-1.500000X0.500000X0*%
%ADD26R,3.000000X3.000000*%
%ADD27C,3.000000*%
%ADD28R,1.600000X1.600000*%
%ADD29O,1.600000X1.600000*%
%ADD30C,1.600000*%
%ADD31R,4.500000X2.000000*%
%ADD32R,2.200000X1.200000*%
%ADD33R,6.400000X5.800000*%
%ADD34RoundRect,0.243750X-0.243750X-0.456250X0.243750X-0.456250X0.243750X0.456250X-0.243750X0.456250X0*%
G04 APERTURE END LIST*
D10*
X11650000Y81641429D02*
X11650000Y80570000D01*
X11578571Y80355715D01*
X11435714Y80212858D01*
X11221428Y80141429D01*
X11078571Y80141429D01*
X12578571Y80141429D02*
X12435714Y80212858D01*
X12364285Y80284286D01*
X12292857Y80427143D01*
X12292857Y80855715D01*
X12364285Y80998572D01*
X12435714Y81070000D01*
X12578571Y81141429D01*
X12792857Y81141429D01*
X12935714Y81070000D01*
X13007142Y80998572D01*
X13078571Y80855715D01*
X13078571Y80427143D01*
X13007142Y80284286D01*
X12935714Y80212858D01*
X12792857Y80141429D01*
X12578571Y80141429D01*
X13935714Y80141429D02*
X13792857Y80212858D01*
X13721428Y80355715D01*
X13721428Y81641429D01*
X14721428Y80141429D02*
X14578571Y80212858D01*
X14507142Y80355715D01*
X14507142Y81641429D01*
X15150000Y81141429D02*
X15507142Y80141429D01*
X15864285Y81141429D02*
X15507142Y80141429D01*
X15364285Y79784286D01*
X15292857Y79712858D01*
X15150000Y79641429D01*
X18435714Y80141429D02*
X17935714Y80855715D01*
X17578571Y80141429D02*
X17578571Y81641429D01*
X18150000Y81641429D01*
X18292857Y81570000D01*
X18364285Y81498572D01*
X18435714Y81355715D01*
X18435714Y81141429D01*
X18364285Y80998572D01*
X18292857Y80927143D01*
X18150000Y80855715D01*
X17578571Y80855715D01*
X19721428Y80141429D02*
X19721428Y80927143D01*
X19650000Y81070000D01*
X19507142Y81141429D01*
X19221428Y81141429D01*
X19078571Y81070000D01*
X19721428Y80212858D02*
X19578571Y80141429D01*
X19221428Y80141429D01*
X19078571Y80212858D01*
X19007142Y80355715D01*
X19007142Y80498572D01*
X19078571Y80641429D01*
X19221428Y80712858D01*
X19578571Y80712858D01*
X19721428Y80784286D01*
X20435714Y81141429D02*
X20435714Y80141429D01*
X20435714Y80998572D02*
X20507142Y81070000D01*
X20650000Y81141429D01*
X20864285Y81141429D01*
X21007142Y81070000D01*
X21078571Y80927143D01*
X21078571Y80141429D01*
X22435714Y80212858D02*
X22292857Y80141429D01*
X22007142Y80141429D01*
X21864285Y80212858D01*
X21792857Y80284286D01*
X21721428Y80427143D01*
X21721428Y80855715D01*
X21792857Y80998572D01*
X21864285Y81070000D01*
X22007142Y81141429D01*
X22292857Y81141429D01*
X22435714Y81070000D01*
X23078571Y80141429D02*
X23078571Y81641429D01*
X23721428Y80141429D02*
X23721428Y80927143D01*
X23650000Y81070000D01*
X23507142Y81141429D01*
X23292857Y81141429D01*
X23150000Y81070000D01*
X23078571Y80998572D01*
X25007142Y80212858D02*
X24864285Y80141429D01*
X24578571Y80141429D01*
X24435714Y80212858D01*
X24364285Y80355715D01*
X24364285Y80927143D01*
X24435714Y81070000D01*
X24578571Y81141429D01*
X24864285Y81141429D01*
X25007142Y81070000D01*
X25078571Y80927143D01*
X25078571Y80784286D01*
X24364285Y80641429D01*
X25721428Y80141429D02*
X25721428Y81141429D01*
X25721428Y80855715D02*
X25792857Y80998572D01*
X25864285Y81070000D01*
X26007142Y81141429D01*
X26150000Y81141429D01*
X28292857Y80927143D02*
X28507142Y80855715D01*
X28578571Y80784286D01*
X28650000Y80641429D01*
X28650000Y80427143D01*
X28578571Y80284286D01*
X28507142Y80212858D01*
X28364285Y80141429D01*
X27792857Y80141429D01*
X27792857Y81641429D01*
X28292857Y81641429D01*
X28435714Y81570000D01*
X28507142Y81498572D01*
X28578571Y81355715D01*
X28578571Y81212858D01*
X28507142Y81070000D01*
X28435714Y80998572D01*
X28292857Y80927143D01*
X27792857Y80927143D01*
X29507142Y80141429D02*
X29364285Y80212858D01*
X29292857Y80284286D01*
X29221428Y80427143D01*
X29221428Y80855715D01*
X29292857Y80998572D01*
X29364285Y81070000D01*
X29507142Y81141429D01*
X29721428Y81141429D01*
X29864285Y81070000D01*
X29935714Y80998572D01*
X30007142Y80855715D01*
X30007142Y80427143D01*
X29935714Y80284286D01*
X29864285Y80212858D01*
X29721428Y80141429D01*
X29507142Y80141429D01*
X31292857Y80141429D02*
X31292857Y80927143D01*
X31221428Y81070000D01*
X31078571Y81141429D01*
X30792857Y81141429D01*
X30650000Y81070000D01*
X31292857Y80212858D02*
X31150000Y80141429D01*
X30792857Y80141429D01*
X30650000Y80212858D01*
X30578571Y80355715D01*
X30578571Y80498572D01*
X30650000Y80641429D01*
X30792857Y80712858D01*
X31150000Y80712858D01*
X31292857Y80784286D01*
X32007142Y80141429D02*
X32007142Y81141429D01*
X32007142Y80855715D02*
X32078571Y80998572D01*
X32150000Y81070000D01*
X32292857Y81141429D01*
X32435714Y81141429D01*
X33578571Y80141429D02*
X33578571Y81641429D01*
X33578571Y80212858D02*
X33435714Y80141429D01*
X33150000Y80141429D01*
X33007142Y80212858D01*
X32935714Y80284286D01*
X32864285Y80427143D01*
X32864285Y80855715D01*
X32935714Y80998572D01*
X33007142Y81070000D01*
X33150000Y81141429D01*
X33435714Y81141429D01*
X33578571Y81070000D01*
D11*
%TO.C,H4*%
X134238095Y8747620D02*
X134238095Y9747620D01*
X134238095Y9271429D02*
X134809523Y9271429D01*
X134809523Y8747620D02*
X134809523Y9747620D01*
X135714285Y9414286D02*
X135714285Y8747620D01*
X135476190Y9795239D02*
X135238095Y9080953D01*
X135857142Y9080953D01*
%TO.C,DS1*%
X42001380Y41984596D02*
X41001380Y41984596D01*
X41001380Y42222691D01*
X41049000Y42365548D01*
X41144238Y42460786D01*
X41239476Y42508405D01*
X41429952Y42556024D01*
X41572809Y42556024D01*
X41763285Y42508405D01*
X41858523Y42460786D01*
X41953761Y42365548D01*
X42001380Y42222691D01*
X42001380Y41984596D01*
X41953761Y42936977D02*
X42001380Y43079834D01*
X42001380Y43317929D01*
X41953761Y43413167D01*
X41906142Y43460786D01*
X41810904Y43508405D01*
X41715666Y43508405D01*
X41620428Y43460786D01*
X41572809Y43413167D01*
X41525190Y43317929D01*
X41477571Y43127453D01*
X41429952Y43032215D01*
X41382333Y42984596D01*
X41287095Y42936977D01*
X41191857Y42936977D01*
X41096619Y42984596D01*
X41049000Y43032215D01*
X41001380Y43127453D01*
X41001380Y43365548D01*
X41049000Y43508405D01*
X42001380Y44460786D02*
X42001380Y43889358D01*
X42001380Y44175072D02*
X41001380Y44175072D01*
X41144238Y44079834D01*
X41239476Y43984596D01*
X41287095Y43889358D01*
%TO.C,SW3*%
X69034666Y31801239D02*
X69177523Y31753620D01*
X69415619Y31753620D01*
X69510857Y31801239D01*
X69558476Y31848858D01*
X69606095Y31944096D01*
X69606095Y32039334D01*
X69558476Y32134572D01*
X69510857Y32182191D01*
X69415619Y32229810D01*
X69225142Y32277429D01*
X69129904Y32325048D01*
X69082285Y32372667D01*
X69034666Y32467905D01*
X69034666Y32563143D01*
X69082285Y32658381D01*
X69129904Y32706000D01*
X69225142Y32753620D01*
X69463238Y32753620D01*
X69606095Y32706000D01*
X69939428Y32753620D02*
X70177523Y31753620D01*
X70368000Y32467905D01*
X70558476Y31753620D01*
X70796571Y32753620D01*
X71082285Y32753620D02*
X71701333Y32753620D01*
X71368000Y32372667D01*
X71510857Y32372667D01*
X71606095Y32325048D01*
X71653714Y32277429D01*
X71701333Y32182191D01*
X71701333Y31944096D01*
X71653714Y31848858D01*
X71606095Y31801239D01*
X71510857Y31753620D01*
X71225142Y31753620D01*
X71129904Y31801239D01*
X71082285Y31848858D01*
%TO.C,C4*%
X90529142Y8087334D02*
X90576761Y8039715D01*
X90624380Y7896858D01*
X90624380Y7801620D01*
X90576761Y7658762D01*
X90481523Y7563524D01*
X90386285Y7515905D01*
X90195809Y7468286D01*
X90052952Y7468286D01*
X89862476Y7515905D01*
X89767238Y7563524D01*
X89672000Y7658762D01*
X89624380Y7801620D01*
X89624380Y7896858D01*
X89672000Y8039715D01*
X89719619Y8087334D01*
X89957714Y8944477D02*
X90624380Y8944477D01*
X89576761Y8706381D02*
X90291047Y8468286D01*
X90291047Y9087334D01*
%TO.C,TP6*%
X115668095Y27555620D02*
X116239523Y27555620D01*
X115953809Y26555620D02*
X115953809Y27555620D01*
X116572857Y26555620D02*
X116572857Y27555620D01*
X116953809Y27555620D01*
X117049047Y27508000D01*
X117096666Y27460381D01*
X117144285Y27365143D01*
X117144285Y27222286D01*
X117096666Y27127048D01*
X117049047Y27079429D01*
X116953809Y27031810D01*
X116572857Y27031810D01*
X118001428Y27555620D02*
X117810952Y27555620D01*
X117715714Y27508000D01*
X117668095Y27460381D01*
X117572857Y27317524D01*
X117525238Y27127048D01*
X117525238Y26746096D01*
X117572857Y26650858D01*
X117620476Y26603239D01*
X117715714Y26555620D01*
X117906190Y26555620D01*
X118001428Y26603239D01*
X118049047Y26650858D01*
X118096666Y26746096D01*
X118096666Y26984191D01*
X118049047Y27079429D01*
X118001428Y27127048D01*
X117906190Y27174667D01*
X117715714Y27174667D01*
X117620476Y27127048D01*
X117572857Y27079429D01*
X117525238Y26984191D01*
%TO.C,C2*%
X77313333Y21324858D02*
X77265714Y21277239D01*
X77122857Y21229620D01*
X77027619Y21229620D01*
X76884761Y21277239D01*
X76789523Y21372477D01*
X76741904Y21467715D01*
X76694285Y21658191D01*
X76694285Y21801048D01*
X76741904Y21991524D01*
X76789523Y22086762D01*
X76884761Y22182000D01*
X77027619Y22229620D01*
X77122857Y22229620D01*
X77265714Y22182000D01*
X77313333Y22134381D01*
X77694285Y22134381D02*
X77741904Y22182000D01*
X77837142Y22229620D01*
X78075238Y22229620D01*
X78170476Y22182000D01*
X78218095Y22134381D01*
X78265714Y22039143D01*
X78265714Y21943905D01*
X78218095Y21801048D01*
X77646666Y21229620D01*
X78265714Y21229620D01*
%TO.C,J1*%
X31826666Y11882620D02*
X31826666Y11168334D01*
X31779047Y11025477D01*
X31683809Y10930239D01*
X31540952Y10882620D01*
X31445714Y10882620D01*
X32826666Y10882620D02*
X32255238Y10882620D01*
X32540952Y10882620D02*
X32540952Y11882620D01*
X32445714Y11739762D01*
X32350476Y11644524D01*
X32255238Y11596905D01*
%TO.C,Y1*%
X36054190Y15491810D02*
X36530380Y15491810D01*
X35530380Y15158477D02*
X36054190Y15491810D01*
X35530380Y15825143D01*
X36530380Y16682286D02*
X36530380Y16110858D01*
X36530380Y16396572D02*
X35530380Y16396572D01*
X35673238Y16301334D01*
X35768476Y16206096D01*
X35816095Y16110858D01*
%TO.C,C7*%
X127859333Y20054858D02*
X127811714Y20007239D01*
X127668857Y19959620D01*
X127573619Y19959620D01*
X127430761Y20007239D01*
X127335523Y20102477D01*
X127287904Y20197715D01*
X127240285Y20388191D01*
X127240285Y20531048D01*
X127287904Y20721524D01*
X127335523Y20816762D01*
X127430761Y20912000D01*
X127573619Y20959620D01*
X127668857Y20959620D01*
X127811714Y20912000D01*
X127859333Y20864381D01*
X128192666Y20959620D02*
X128859333Y20959620D01*
X128430761Y19959620D01*
%TO.C,J2*%
X108134666Y21515620D02*
X108134666Y20801334D01*
X108087047Y20658477D01*
X107991809Y20563239D01*
X107848952Y20515620D01*
X107753714Y20515620D01*
X108563238Y21420381D02*
X108610857Y21468000D01*
X108706095Y21515620D01*
X108944190Y21515620D01*
X109039428Y21468000D01*
X109087047Y21420381D01*
X109134666Y21325143D01*
X109134666Y21229905D01*
X109087047Y21087048D01*
X108515619Y20515620D01*
X109134666Y20515620D01*
%TO.C,BT1*%
X24576539Y51617658D02*
X24624158Y51760515D01*
X24671777Y51808134D01*
X24767015Y51855753D01*
X24909872Y51855753D01*
X25005110Y51808134D01*
X25052729Y51760515D01*
X25100348Y51665277D01*
X25100348Y51284325D01*
X24100348Y51284325D01*
X24100348Y51617658D01*
X24147968Y51712896D01*
X24195587Y51760515D01*
X24290825Y51808134D01*
X24386063Y51808134D01*
X24481301Y51760515D01*
X24528920Y51712896D01*
X24576539Y51617658D01*
X24576539Y51284325D01*
X24100348Y52141468D02*
X24100348Y52712896D01*
X25100348Y52427182D02*
X24100348Y52427182D01*
X25100348Y53570039D02*
X25100348Y52998611D01*
X25100348Y53284325D02*
X24100348Y53284325D01*
X24243206Y53189087D01*
X24338444Y53093849D01*
X24386063Y52998611D01*
X19675126Y54652258D02*
X19675126Y55795115D01*
X20246555Y55223686D02*
X19103698Y55223686D01*
%TO.C,DS2*%
X42001380Y62679596D02*
X41001380Y62679596D01*
X41001380Y62917691D01*
X41049000Y63060548D01*
X41144238Y63155786D01*
X41239476Y63203405D01*
X41429952Y63251024D01*
X41572809Y63251024D01*
X41763285Y63203405D01*
X41858523Y63155786D01*
X41953761Y63060548D01*
X42001380Y62917691D01*
X42001380Y62679596D01*
X41953761Y63631977D02*
X42001380Y63774834D01*
X42001380Y64012929D01*
X41953761Y64108167D01*
X41906142Y64155786D01*
X41810904Y64203405D01*
X41715666Y64203405D01*
X41620428Y64155786D01*
X41572809Y64108167D01*
X41525190Y64012929D01*
X41477571Y63822453D01*
X41429952Y63727215D01*
X41382333Y63679596D01*
X41287095Y63631977D01*
X41191857Y63631977D01*
X41096619Y63679596D01*
X41049000Y63727215D01*
X41001380Y63822453D01*
X41001380Y64060548D01*
X41049000Y64203405D01*
X41096619Y64584358D02*
X41049000Y64631977D01*
X41001380Y64727215D01*
X41001380Y64965310D01*
X41049000Y65060548D01*
X41096619Y65108167D01*
X41191857Y65155786D01*
X41287095Y65155786D01*
X41429952Y65108167D01*
X42001380Y64536739D01*
X42001380Y65155786D01*
%TO.C,U4*%
X128797380Y55582096D02*
X129606904Y55582096D01*
X129702142Y55629715D01*
X129749761Y55677334D01*
X129797380Y55772572D01*
X129797380Y55963048D01*
X129749761Y56058286D01*
X129702142Y56105905D01*
X129606904Y56153524D01*
X128797380Y56153524D01*
X129130714Y57058286D02*
X129797380Y57058286D01*
X128749761Y56820191D02*
X129464047Y56582096D01*
X129464047Y57201143D01*
%TO.C,R2*%
X113872380Y48313334D02*
X113396190Y47980000D01*
X113872380Y47741905D02*
X112872380Y47741905D01*
X112872380Y48122858D01*
X112920000Y48218096D01*
X112967619Y48265715D01*
X113062857Y48313334D01*
X113205714Y48313334D01*
X113300952Y48265715D01*
X113348571Y48218096D01*
X113396190Y48122858D01*
X113396190Y47741905D01*
X112967619Y48694286D02*
X112920000Y48741905D01*
X112872380Y48837143D01*
X112872380Y49075239D01*
X112920000Y49170477D01*
X112967619Y49218096D01*
X113062857Y49265715D01*
X113158095Y49265715D01*
X113300952Y49218096D01*
X113872380Y48646667D01*
X113872380Y49265715D01*
%TO.C,R4*%
X97633333Y31897620D02*
X97300000Y32373810D01*
X97061904Y31897620D02*
X97061904Y32897620D01*
X97442857Y32897620D01*
X97538095Y32850000D01*
X97585714Y32802381D01*
X97633333Y32707143D01*
X97633333Y32564286D01*
X97585714Y32469048D01*
X97538095Y32421429D01*
X97442857Y32373810D01*
X97061904Y32373810D01*
X98490476Y32564286D02*
X98490476Y31897620D01*
X98252380Y32945239D02*
X98014285Y32230953D01*
X98633333Y32230953D01*
%TO.C,R6*%
X33662380Y52089334D02*
X33186190Y51756000D01*
X33662380Y51517905D02*
X32662380Y51517905D01*
X32662380Y51898858D01*
X32710000Y51994096D01*
X32757619Y52041715D01*
X32852857Y52089334D01*
X32995714Y52089334D01*
X33090952Y52041715D01*
X33138571Y51994096D01*
X33186190Y51898858D01*
X33186190Y51517905D01*
X32662380Y52946477D02*
X32662380Y52756000D01*
X32710000Y52660762D01*
X32757619Y52613143D01*
X32900476Y52517905D01*
X33090952Y52470286D01*
X33471904Y52470286D01*
X33567142Y52517905D01*
X33614761Y52565524D01*
X33662380Y52660762D01*
X33662380Y52851239D01*
X33614761Y52946477D01*
X33567142Y52994096D01*
X33471904Y53041715D01*
X33233809Y53041715D01*
X33138571Y52994096D01*
X33090952Y52946477D01*
X33043333Y52851239D01*
X33043333Y52660762D01*
X33090952Y52565524D01*
X33138571Y52517905D01*
X33233809Y52470286D01*
%TO.C,TP3*%
X18068095Y43695620D02*
X18639523Y43695620D01*
X18353809Y42695620D02*
X18353809Y43695620D01*
X18972857Y42695620D02*
X18972857Y43695620D01*
X19353809Y43695620D01*
X19449047Y43648000D01*
X19496666Y43600381D01*
X19544285Y43505143D01*
X19544285Y43362286D01*
X19496666Y43267048D01*
X19449047Y43219429D01*
X19353809Y43171810D01*
X18972857Y43171810D01*
X19877619Y43695620D02*
X20496666Y43695620D01*
X20163333Y43314667D01*
X20306190Y43314667D01*
X20401428Y43267048D01*
X20449047Y43219429D01*
X20496666Y43124191D01*
X20496666Y42886096D01*
X20449047Y42790858D01*
X20401428Y42743239D01*
X20306190Y42695620D01*
X20020476Y42695620D01*
X19925238Y42743239D01*
X19877619Y42790858D01*
%TO.C,C5*%
X127859333Y13383658D02*
X127811714Y13336039D01*
X127668857Y13288420D01*
X127573619Y13288420D01*
X127430761Y13336039D01*
X127335523Y13431277D01*
X127287904Y13526515D01*
X127240285Y13716991D01*
X127240285Y13859848D01*
X127287904Y14050324D01*
X127335523Y14145562D01*
X127430761Y14240800D01*
X127573619Y14288420D01*
X127668857Y14288420D01*
X127811714Y14240800D01*
X127859333Y14193181D01*
X128764095Y14288420D02*
X128287904Y14288420D01*
X128240285Y13812229D01*
X128287904Y13859848D01*
X128383142Y13907467D01*
X128621238Y13907467D01*
X128716476Y13859848D01*
X128764095Y13812229D01*
X128811714Y13716991D01*
X128811714Y13478896D01*
X128764095Y13383658D01*
X128716476Y13336039D01*
X128621238Y13288420D01*
X128383142Y13288420D01*
X128287904Y13336039D01*
X128240285Y13383658D01*
%TO.C,H2*%
X134238095Y88747620D02*
X134238095Y89747620D01*
X134238095Y89271429D02*
X134809523Y89271429D01*
X134809523Y88747620D02*
X134809523Y89747620D01*
X135238095Y89652381D02*
X135285714Y89700000D01*
X135380952Y89747620D01*
X135619047Y89747620D01*
X135714285Y89700000D01*
X135761904Y89652381D01*
X135809523Y89557143D01*
X135809523Y89461905D01*
X135761904Y89319048D01*
X135190476Y88747620D01*
X135809523Y88747620D01*
%TO.C,R5*%
X25403333Y30107620D02*
X25070000Y30583810D01*
X24831904Y30107620D02*
X24831904Y31107620D01*
X25212857Y31107620D01*
X25308095Y31060000D01*
X25355714Y31012381D01*
X25403333Y30917143D01*
X25403333Y30774286D01*
X25355714Y30679048D01*
X25308095Y30631429D01*
X25212857Y30583810D01*
X24831904Y30583810D01*
X26308095Y31107620D02*
X25831904Y31107620D01*
X25784285Y30631429D01*
X25831904Y30679048D01*
X25927142Y30726667D01*
X26165238Y30726667D01*
X26260476Y30679048D01*
X26308095Y30631429D01*
X26355714Y30536191D01*
X26355714Y30298096D01*
X26308095Y30202858D01*
X26260476Y30155239D01*
X26165238Y30107620D01*
X25927142Y30107620D01*
X25831904Y30155239D01*
X25784285Y30202858D01*
%TO.C,R9*%
X62581333Y31643620D02*
X62248000Y32119810D01*
X62009904Y31643620D02*
X62009904Y32643620D01*
X62390857Y32643620D01*
X62486095Y32596000D01*
X62533714Y32548381D01*
X62581333Y32453143D01*
X62581333Y32310286D01*
X62533714Y32215048D01*
X62486095Y32167429D01*
X62390857Y32119810D01*
X62009904Y32119810D01*
X63057523Y31643620D02*
X63248000Y31643620D01*
X63343238Y31691239D01*
X63390857Y31738858D01*
X63486095Y31881715D01*
X63533714Y32072191D01*
X63533714Y32453143D01*
X63486095Y32548381D01*
X63438476Y32596000D01*
X63343238Y32643620D01*
X63152761Y32643620D01*
X63057523Y32596000D01*
X63009904Y32548381D01*
X62962285Y32453143D01*
X62962285Y32215048D01*
X63009904Y32119810D01*
X63057523Y32072191D01*
X63152761Y32024572D01*
X63343238Y32024572D01*
X63438476Y32072191D01*
X63486095Y32119810D01*
X63533714Y32215048D01*
%TO.C,R13*%
X66169142Y6371620D02*
X65835809Y6847810D01*
X65597714Y6371620D02*
X65597714Y7371620D01*
X65978666Y7371620D01*
X66073904Y7324000D01*
X66121523Y7276381D01*
X66169142Y7181143D01*
X66169142Y7038286D01*
X66121523Y6943048D01*
X66073904Y6895429D01*
X65978666Y6847810D01*
X65597714Y6847810D01*
X67121523Y6371620D02*
X66550095Y6371620D01*
X66835809Y6371620D02*
X66835809Y7371620D01*
X66740571Y7228762D01*
X66645333Y7133524D01*
X66550095Y7085905D01*
X67454857Y7371620D02*
X68073904Y7371620D01*
X67740571Y6990667D01*
X67883428Y6990667D01*
X67978666Y6943048D01*
X68026285Y6895429D01*
X68073904Y6800191D01*
X68073904Y6562096D01*
X68026285Y6466858D01*
X67978666Y6419239D01*
X67883428Y6371620D01*
X67597714Y6371620D01*
X67502476Y6419239D01*
X67454857Y6466858D01*
%TO.C,U1*%
X44724095Y20105620D02*
X44724095Y19296096D01*
X44771714Y19200858D01*
X44819333Y19153239D01*
X44914571Y19105620D01*
X45105047Y19105620D01*
X45200285Y19153239D01*
X45247904Y19200858D01*
X45295523Y19296096D01*
X45295523Y20105620D01*
X46295523Y19105620D02*
X45724095Y19105620D01*
X46009809Y19105620D02*
X46009809Y20105620D01*
X45914571Y19962762D01*
X45819333Y19867524D01*
X45724095Y19819905D01*
%TO.C,H3*%
X4238095Y8747620D02*
X4238095Y9747620D01*
X4238095Y9271429D02*
X4809523Y9271429D01*
X4809523Y8747620D02*
X4809523Y9747620D01*
X5190476Y9747620D02*
X5809523Y9747620D01*
X5476190Y9366667D01*
X5619047Y9366667D01*
X5714285Y9319048D01*
X5761904Y9271429D01*
X5809523Y9176191D01*
X5809523Y8938096D01*
X5761904Y8842858D01*
X5714285Y8795239D01*
X5619047Y8747620D01*
X5333333Y8747620D01*
X5238095Y8795239D01*
X5190476Y8842858D01*
%TO.C,TP4*%
X105288095Y27745620D02*
X105859523Y27745620D01*
X105573809Y26745620D02*
X105573809Y27745620D01*
X106192857Y26745620D02*
X106192857Y27745620D01*
X106573809Y27745620D01*
X106669047Y27698000D01*
X106716666Y27650381D01*
X106764285Y27555143D01*
X106764285Y27412286D01*
X106716666Y27317048D01*
X106669047Y27269429D01*
X106573809Y27221810D01*
X106192857Y27221810D01*
X107621428Y27412286D02*
X107621428Y26745620D01*
X107383333Y27793239D02*
X107145238Y27078953D01*
X107764285Y27078953D01*
%TO.C,R8*%
X45055333Y31897620D02*
X44722000Y32373810D01*
X44483904Y31897620D02*
X44483904Y32897620D01*
X44864857Y32897620D01*
X44960095Y32850000D01*
X45007714Y32802381D01*
X45055333Y32707143D01*
X45055333Y32564286D01*
X45007714Y32469048D01*
X44960095Y32421429D01*
X44864857Y32373810D01*
X44483904Y32373810D01*
X45626761Y32469048D02*
X45531523Y32516667D01*
X45483904Y32564286D01*
X45436285Y32659524D01*
X45436285Y32707143D01*
X45483904Y32802381D01*
X45531523Y32850000D01*
X45626761Y32897620D01*
X45817238Y32897620D01*
X45912476Y32850000D01*
X45960095Y32802381D01*
X46007714Y32707143D01*
X46007714Y32659524D01*
X45960095Y32564286D01*
X45912476Y32516667D01*
X45817238Y32469048D01*
X45626761Y32469048D01*
X45531523Y32421429D01*
X45483904Y32373810D01*
X45436285Y32278572D01*
X45436285Y32088096D01*
X45483904Y31992858D01*
X45531523Y31945239D01*
X45626761Y31897620D01*
X45817238Y31897620D01*
X45912476Y31945239D01*
X45960095Y31992858D01*
X46007714Y32088096D01*
X46007714Y32278572D01*
X45960095Y32373810D01*
X45912476Y32421429D01*
X45817238Y32469048D01*
%TO.C,H1*%
X4238095Y88747620D02*
X4238095Y89747620D01*
X4238095Y89271429D02*
X4809523Y89271429D01*
X4809523Y88747620D02*
X4809523Y89747620D01*
X5809523Y88747620D02*
X5238095Y88747620D01*
X5523809Y88747620D02*
X5523809Y89747620D01*
X5428571Y89604762D01*
X5333333Y89509524D01*
X5238095Y89461905D01*
%TO.C,Y2*%
X79883809Y1843810D02*
X79883809Y1367620D01*
X79550476Y2367620D02*
X79883809Y1843810D01*
X80217142Y2367620D01*
X80502857Y2272381D02*
X80550476Y2320000D01*
X80645714Y2367620D01*
X80883809Y2367620D01*
X80979047Y2320000D01*
X81026666Y2272381D01*
X81074285Y2177143D01*
X81074285Y2081905D01*
X81026666Y1939048D01*
X80455238Y1367620D01*
X81074285Y1367620D01*
%TO.C,R11*%
X125097142Y36977620D02*
X124763809Y37453810D01*
X124525714Y36977620D02*
X124525714Y37977620D01*
X124906666Y37977620D01*
X125001904Y37930000D01*
X125049523Y37882381D01*
X125097142Y37787143D01*
X125097142Y37644286D01*
X125049523Y37549048D01*
X125001904Y37501429D01*
X124906666Y37453810D01*
X124525714Y37453810D01*
X126049523Y36977620D02*
X125478095Y36977620D01*
X125763809Y36977620D02*
X125763809Y37977620D01*
X125668571Y37834762D01*
X125573333Y37739524D01*
X125478095Y37691905D01*
X127001904Y36977620D02*
X126430476Y36977620D01*
X126716190Y36977620D02*
X126716190Y37977620D01*
X126620952Y37834762D01*
X126525714Y37739524D01*
X126430476Y37691905D01*
%TO.C,U2*%
X119006095Y12893620D02*
X119006095Y12084096D01*
X119053714Y11988858D01*
X119101333Y11941239D01*
X119196571Y11893620D01*
X119387047Y11893620D01*
X119482285Y11941239D01*
X119529904Y11988858D01*
X119577523Y12084096D01*
X119577523Y12893620D01*
X120006095Y12798381D02*
X120053714Y12846000D01*
X120148952Y12893620D01*
X120387047Y12893620D01*
X120482285Y12846000D01*
X120529904Y12798381D01*
X120577523Y12703143D01*
X120577523Y12607905D01*
X120529904Y12465048D01*
X119958476Y11893620D01*
X120577523Y11893620D01*
%TO.C,R3*%
X59516380Y21643334D02*
X59040190Y21310000D01*
X59516380Y21071905D02*
X58516380Y21071905D01*
X58516380Y21452858D01*
X58564000Y21548096D01*
X58611619Y21595715D01*
X58706857Y21643334D01*
X58849714Y21643334D01*
X58944952Y21595715D01*
X58992571Y21548096D01*
X59040190Y21452858D01*
X59040190Y21071905D01*
X58516380Y21976667D02*
X58516380Y22595715D01*
X58897333Y22262381D01*
X58897333Y22405239D01*
X58944952Y22500477D01*
X58992571Y22548096D01*
X59087809Y22595715D01*
X59325904Y22595715D01*
X59421142Y22548096D01*
X59468761Y22500477D01*
X59516380Y22405239D01*
X59516380Y22119524D01*
X59468761Y22024286D01*
X59421142Y21976667D01*
%TO.C,R1*%
X53548380Y21643334D02*
X53072190Y21310000D01*
X53548380Y21071905D02*
X52548380Y21071905D01*
X52548380Y21452858D01*
X52596000Y21548096D01*
X52643619Y21595715D01*
X52738857Y21643334D01*
X52881714Y21643334D01*
X52976952Y21595715D01*
X53024571Y21548096D01*
X53072190Y21452858D01*
X53072190Y21071905D01*
X53548380Y22595715D02*
X53548380Y22024286D01*
X53548380Y22310000D02*
X52548380Y22310000D01*
X52691238Y22214762D01*
X52786476Y22119524D01*
X52834095Y22024286D01*
%TO.C,R12*%
X79377142Y31643620D02*
X79043809Y32119810D01*
X78805714Y31643620D02*
X78805714Y32643620D01*
X79186666Y32643620D01*
X79281904Y32596000D01*
X79329523Y32548381D01*
X79377142Y32453143D01*
X79377142Y32310286D01*
X79329523Y32215048D01*
X79281904Y32167429D01*
X79186666Y32119810D01*
X78805714Y32119810D01*
X80329523Y31643620D02*
X79758095Y31643620D01*
X80043809Y31643620D02*
X80043809Y32643620D01*
X79948571Y32500762D01*
X79853333Y32405524D01*
X79758095Y32357905D01*
X80710476Y32548381D02*
X80758095Y32596000D01*
X80853333Y32643620D01*
X81091428Y32643620D01*
X81186666Y32596000D01*
X81234285Y32548381D01*
X81281904Y32453143D01*
X81281904Y32357905D01*
X81234285Y32215048D01*
X80662857Y31643620D01*
X81281904Y31643620D01*
%TO.C,C6*%
X120493333Y31992858D02*
X120445714Y31945239D01*
X120302857Y31897620D01*
X120207619Y31897620D01*
X120064761Y31945239D01*
X119969523Y32040477D01*
X119921904Y32135715D01*
X119874285Y32326191D01*
X119874285Y32469048D01*
X119921904Y32659524D01*
X119969523Y32754762D01*
X120064761Y32850000D01*
X120207619Y32897620D01*
X120302857Y32897620D01*
X120445714Y32850000D01*
X120493333Y32802381D01*
X121350476Y32897620D02*
X121160000Y32897620D01*
X121064761Y32850000D01*
X121017142Y32802381D01*
X120921904Y32659524D01*
X120874285Y32469048D01*
X120874285Y32088096D01*
X120921904Y31992858D01*
X120969523Y31945239D01*
X121064761Y31897620D01*
X121255238Y31897620D01*
X121350476Y31945239D01*
X121398095Y31992858D01*
X121445714Y32088096D01*
X121445714Y32326191D01*
X121398095Y32421429D01*
X121350476Y32469048D01*
X121255238Y32516667D01*
X121064761Y32516667D01*
X120969523Y32469048D01*
X120921904Y32421429D01*
X120874285Y32326191D01*
%TO.C,U3*%
X52006380Y13184096D02*
X52815904Y13184096D01*
X52911142Y13231715D01*
X52958761Y13279334D01*
X53006380Y13374572D01*
X53006380Y13565048D01*
X52958761Y13660286D01*
X52911142Y13707905D01*
X52815904Y13755524D01*
X52006380Y13755524D01*
X52006380Y14136477D02*
X52006380Y14755524D01*
X52387333Y14422191D01*
X52387333Y14565048D01*
X52434952Y14660286D01*
X52482571Y14707905D01*
X52577809Y14755524D01*
X52815904Y14755524D01*
X52911142Y14707905D01*
X52958761Y14660286D01*
X53006380Y14565048D01*
X53006380Y14279334D01*
X52958761Y14184096D01*
X52911142Y14136477D01*
%TO.C,SW4*%
X86306666Y31801239D02*
X86449523Y31753620D01*
X86687619Y31753620D01*
X86782857Y31801239D01*
X86830476Y31848858D01*
X86878095Y31944096D01*
X86878095Y32039334D01*
X86830476Y32134572D01*
X86782857Y32182191D01*
X86687619Y32229810D01*
X86497142Y32277429D01*
X86401904Y32325048D01*
X86354285Y32372667D01*
X86306666Y32467905D01*
X86306666Y32563143D01*
X86354285Y32658381D01*
X86401904Y32706000D01*
X86497142Y32753620D01*
X86735238Y32753620D01*
X86878095Y32706000D01*
X87211428Y32753620D02*
X87449523Y31753620D01*
X87640000Y32467905D01*
X87830476Y31753620D01*
X88068571Y32753620D01*
X88878095Y32420286D02*
X88878095Y31753620D01*
X88640000Y32801239D02*
X88401904Y32086953D01*
X89020952Y32086953D01*
%TO.C,R7*%
X32138380Y37613334D02*
X31662190Y37280000D01*
X32138380Y37041905D02*
X31138380Y37041905D01*
X31138380Y37422858D01*
X31186000Y37518096D01*
X31233619Y37565715D01*
X31328857Y37613334D01*
X31471714Y37613334D01*
X31566952Y37565715D01*
X31614571Y37518096D01*
X31662190Y37422858D01*
X31662190Y37041905D01*
X31138380Y37946667D02*
X31138380Y38613334D01*
X32138380Y38184762D01*
%TO.C,R10*%
X125087142Y31089620D02*
X124753809Y31565810D01*
X124515714Y31089620D02*
X124515714Y32089620D01*
X124896666Y32089620D01*
X124991904Y32042000D01*
X125039523Y31994381D01*
X125087142Y31899143D01*
X125087142Y31756286D01*
X125039523Y31661048D01*
X124991904Y31613429D01*
X124896666Y31565810D01*
X124515714Y31565810D01*
X126039523Y31089620D02*
X125468095Y31089620D01*
X125753809Y31089620D02*
X125753809Y32089620D01*
X125658571Y31946762D01*
X125563333Y31851524D01*
X125468095Y31803905D01*
X126658571Y32089620D02*
X126753809Y32089620D01*
X126849047Y32042000D01*
X126896666Y31994381D01*
X126944285Y31899143D01*
X126991904Y31708667D01*
X126991904Y31470572D01*
X126944285Y31280096D01*
X126896666Y31184858D01*
X126849047Y31137239D01*
X126753809Y31089620D01*
X126658571Y31089620D01*
X126563333Y31137239D01*
X126515714Y31184858D01*
X126468095Y31280096D01*
X126420476Y31470572D01*
X126420476Y31708667D01*
X126468095Y31899143D01*
X126515714Y31994381D01*
X126563333Y32042000D01*
X126658571Y32089620D01*
%TO.C,SW2*%
X51508666Y32055239D02*
X51651523Y32007620D01*
X51889619Y32007620D01*
X51984857Y32055239D01*
X52032476Y32102858D01*
X52080095Y32198096D01*
X52080095Y32293334D01*
X52032476Y32388572D01*
X51984857Y32436191D01*
X51889619Y32483810D01*
X51699142Y32531429D01*
X51603904Y32579048D01*
X51556285Y32626667D01*
X51508666Y32721905D01*
X51508666Y32817143D01*
X51556285Y32912381D01*
X51603904Y32960000D01*
X51699142Y33007620D01*
X51937238Y33007620D01*
X52080095Y32960000D01*
X52413428Y33007620D02*
X52651523Y32007620D01*
X52842000Y32721905D01*
X53032476Y32007620D01*
X53270571Y33007620D01*
X53603904Y32912381D02*
X53651523Y32960000D01*
X53746761Y33007620D01*
X53984857Y33007620D01*
X54080095Y32960000D01*
X54127714Y32912381D01*
X54175333Y32817143D01*
X54175333Y32721905D01*
X54127714Y32579048D01*
X53556285Y32007620D01*
X54175333Y32007620D01*
%TO.C,D1*%
X65565904Y3323620D02*
X65565904Y4323620D01*
X65804000Y4323620D01*
X65946857Y4276000D01*
X66042095Y4180762D01*
X66089714Y4085524D01*
X66137333Y3895048D01*
X66137333Y3752191D01*
X66089714Y3561715D01*
X66042095Y3466477D01*
X65946857Y3371239D01*
X65804000Y3323620D01*
X65565904Y3323620D01*
X67089714Y3323620D02*
X66518285Y3323620D01*
X66804000Y3323620D02*
X66804000Y4323620D01*
X66708761Y4180762D01*
X66613523Y4085524D01*
X66518285Y4037905D01*
%TO.C,J3*%
X133026666Y46277620D02*
X133026666Y45563334D01*
X132979047Y45420477D01*
X132883809Y45325239D01*
X132740952Y45277620D01*
X132645714Y45277620D01*
X133407619Y46277620D02*
X134026666Y46277620D01*
X133693333Y45896667D01*
X133836190Y45896667D01*
X133931428Y45849048D01*
X133979047Y45801429D01*
X134026666Y45706191D01*
X134026666Y45468096D01*
X133979047Y45372858D01*
X133931428Y45325239D01*
X133836190Y45277620D01*
X133550476Y45277620D01*
X133455238Y45325239D01*
X133407619Y45372858D01*
%TO.C,C3*%
X70657142Y5193334D02*
X70704761Y5145715D01*
X70752380Y5002858D01*
X70752380Y4907620D01*
X70704761Y4764762D01*
X70609523Y4669524D01*
X70514285Y4621905D01*
X70323809Y4574286D01*
X70180952Y4574286D01*
X69990476Y4621905D01*
X69895238Y4669524D01*
X69800000Y4764762D01*
X69752380Y4907620D01*
X69752380Y5002858D01*
X69800000Y5145715D01*
X69847619Y5193334D01*
X69752380Y5526667D02*
X69752380Y6145715D01*
X70133333Y5812381D01*
X70133333Y5955239D01*
X70180952Y6050477D01*
X70228571Y6098096D01*
X70323809Y6145715D01*
X70561904Y6145715D01*
X70657142Y6098096D01*
X70704761Y6050477D01*
X70752380Y5955239D01*
X70752380Y5669524D01*
X70704761Y5574286D01*
X70657142Y5526667D01*
%TO.C,TP5*%
X110468095Y27555620D02*
X111039523Y27555620D01*
X110753809Y26555620D02*
X110753809Y27555620D01*
X111372857Y26555620D02*
X111372857Y27555620D01*
X111753809Y27555620D01*
X111849047Y27508000D01*
X111896666Y27460381D01*
X111944285Y27365143D01*
X111944285Y27222286D01*
X111896666Y27127048D01*
X111849047Y27079429D01*
X111753809Y27031810D01*
X111372857Y27031810D01*
X112849047Y27555620D02*
X112372857Y27555620D01*
X112325238Y27079429D01*
X112372857Y27127048D01*
X112468095Y27174667D01*
X112706190Y27174667D01*
X112801428Y27127048D01*
X112849047Y27079429D01*
X112896666Y26984191D01*
X112896666Y26746096D01*
X112849047Y26650858D01*
X112801428Y26603239D01*
X112706190Y26555620D01*
X112468095Y26555620D01*
X112372857Y26603239D01*
X112325238Y26650858D01*
%TO.C,TP1*%
X125948095Y27465620D02*
X126519523Y27465620D01*
X126233809Y26465620D02*
X126233809Y27465620D01*
X126852857Y26465620D02*
X126852857Y27465620D01*
X127233809Y27465620D01*
X127329047Y27418000D01*
X127376666Y27370381D01*
X127424285Y27275143D01*
X127424285Y27132286D01*
X127376666Y27037048D01*
X127329047Y26989429D01*
X127233809Y26941810D01*
X126852857Y26941810D01*
X128376666Y26465620D02*
X127805238Y26465620D01*
X128090952Y26465620D02*
X128090952Y27465620D01*
X127995714Y27322762D01*
X127900476Y27227524D01*
X127805238Y27179905D01*
%TO.C,TP2*%
X13368095Y43875620D02*
X13939523Y43875620D01*
X13653809Y42875620D02*
X13653809Y43875620D01*
X14272857Y42875620D02*
X14272857Y43875620D01*
X14653809Y43875620D01*
X14749047Y43828000D01*
X14796666Y43780381D01*
X14844285Y43685143D01*
X14844285Y43542286D01*
X14796666Y43447048D01*
X14749047Y43399429D01*
X14653809Y43351810D01*
X14272857Y43351810D01*
X15225238Y43780381D02*
X15272857Y43828000D01*
X15368095Y43875620D01*
X15606190Y43875620D01*
X15701428Y43828000D01*
X15749047Y43780381D01*
X15796666Y43685143D01*
X15796666Y43589905D01*
X15749047Y43447048D01*
X15177619Y42875620D01*
X15796666Y42875620D01*
%TO.C,C1*%
X73249333Y21324858D02*
X73201714Y21277239D01*
X73058857Y21229620D01*
X72963619Y21229620D01*
X72820761Y21277239D01*
X72725523Y21372477D01*
X72677904Y21467715D01*
X72630285Y21658191D01*
X72630285Y21801048D01*
X72677904Y21991524D01*
X72725523Y22086762D01*
X72820761Y22182000D01*
X72963619Y22229620D01*
X73058857Y22229620D01*
X73201714Y22182000D01*
X73249333Y22134381D01*
X74201714Y21229620D02*
X73630285Y21229620D01*
X73916000Y21229620D02*
X73916000Y22229620D01*
X73820761Y22086762D01*
X73725523Y21991524D01*
X73630285Y21943905D01*
%TO.C,SW1*%
X106626666Y28263239D02*
X106769523Y28215620D01*
X107007619Y28215620D01*
X107102857Y28263239D01*
X107150476Y28310858D01*
X107198095Y28406096D01*
X107198095Y28501334D01*
X107150476Y28596572D01*
X107102857Y28644191D01*
X107007619Y28691810D01*
X106817142Y28739429D01*
X106721904Y28787048D01*
X106674285Y28834667D01*
X106626666Y28929905D01*
X106626666Y29025143D01*
X106674285Y29120381D01*
X106721904Y29168000D01*
X106817142Y29215620D01*
X107055238Y29215620D01*
X107198095Y29168000D01*
X107531428Y29215620D02*
X107769523Y28215620D01*
X107960000Y28929905D01*
X108150476Y28215620D01*
X108388571Y29215620D01*
X109293333Y28215620D02*
X108721904Y28215620D01*
X109007619Y28215620D02*
X109007619Y29215620D01*
X108912380Y29072762D01*
X108817142Y28977524D01*
X108721904Y28929905D01*
%TO.C,DS1*%
X92799000Y60899000D02*
X42349000Y60899000D01*
X92799000Y41649000D02*
X92799000Y60899000D01*
X42349000Y41649000D02*
X42349000Y60899000D01*
X92799000Y41649000D02*
X42349000Y41649000D01*
D12*
X60079000Y41049000D02*
G75*
G03*
X60079000Y41049000I-125000J0D01*
G01*
D13*
%TO.C,SW3*%
X65268000Y30206000D02*
X65268000Y31206000D01*
X67268000Y29206000D02*
X67268000Y26606000D01*
X73268000Y31156000D02*
X67468000Y31156000D01*
X65268000Y31206000D02*
X66268000Y31206000D01*
X73468000Y29206000D02*
X73468000Y26606000D01*
X73368000Y24656000D02*
X67368000Y24656000D01*
%TO.C,TP6*%
X118130000Y25010000D02*
G75*
G03*
X118130000Y25010000I-1200000J0D01*
G01*
%TO.C,J1*%
X33490000Y13665000D02*
X33490000Y12335000D01*
X33490000Y14935000D02*
X30830000Y14935000D01*
X33490000Y12335000D02*
X32160000Y12335000D01*
X33490000Y14935000D02*
X33490000Y30235000D01*
X30830000Y14935000D02*
X30830000Y30235000D01*
X33490000Y30235000D02*
X30830000Y30235000D01*
%TO.C,Y1*%
X39568000Y16518000D02*
X39568000Y15418000D01*
X39518000Y17918000D02*
X37718000Y17918000D01*
X37668000Y16518000D02*
X37668000Y15418000D01*
%TO.C,J2*%
X103968000Y20168000D02*
X112968000Y20168000D01*
X103968000Y9468000D02*
X103968000Y13718000D01*
X103968000Y20168000D02*
X103968000Y18218000D01*
X103968000Y9468000D02*
X112968000Y9468000D01*
X112968000Y20168000D02*
X112968000Y14218000D01*
X112968000Y9468000D02*
X112968000Y12218000D01*
X111334245Y14584295D02*
G75*
G03*
X106268000Y18268000I-2866245J1383705D01*
G01*
X106205258Y13705258D02*
G75*
G03*
X108468000Y12768000I2262740J2262739D01*
G01*
%TO.C,BT1*%
X17067984Y50423686D02*
X22067984Y50423686D01*
X22617984Y50973686D02*
X22617984Y53423686D01*
X16517984Y53423686D02*
X16517984Y50973686D01*
X23087984Y54123686D02*
G75*
G03*
X19051993Y77737129I-3520000J11550000D01*
G01*
X16517984Y50973686D02*
G75*
G03*
X17067984Y50423686I549999J-1D01*
G01*
X23111469Y54128455D02*
G75*
G03*
X22617984Y53423686I256515J-704769D01*
G01*
X22067984Y50423686D02*
G75*
G03*
X22617984Y50973686I1J549999D01*
G01*
X20083975Y77737129D02*
G75*
G03*
X16047984Y54123686I-515991J-12063443D01*
G01*
X16517984Y53423686D02*
G75*
G03*
X16024499Y54128455I-750000J0D01*
G01*
D11*
%TO.C,DS2*%
X42349000Y62344000D02*
X42349000Y81594000D01*
X92799000Y62344000D02*
X42349000Y62344000D01*
X92799000Y81594000D02*
X42349000Y81594000D01*
X92799000Y62344000D02*
X92799000Y81594000D01*
D12*
X60079000Y61744000D02*
G75*
G03*
X60079000Y61744000I-125000J0D01*
G01*
D13*
%TO.C,U4*%
X97745000Y53694000D02*
X128345000Y53694000D01*
X128345000Y57344000D02*
X128345000Y58994000D01*
X128345000Y53694000D02*
X128345000Y55344000D01*
X97745000Y58994000D02*
X97745000Y53694000D01*
X128345000Y58994000D02*
X97745000Y58994000D01*
X128345000Y57344000D02*
G75*
G03*
X128345000Y55344000I0J-1000000D01*
G01*
%TO.C,R6*%
X31060000Y49155000D02*
X31060000Y45705000D01*
X35360000Y49155000D02*
X35360000Y45705000D01*
X35344388Y49180476D02*
G75*
G03*
X31060000Y49155000I-2134388J-1325476D01*
G01*
X31077856Y45676973D02*
G75*
G03*
X35360000Y45705000I2132144J1378027D01*
G01*
%TO.C,TP3*%
X20530000Y40690000D02*
G75*
G03*
X20530000Y40690000I-1200000J0D01*
G01*
%TO.C,U1*%
X42836000Y18558000D02*
X42836000Y8278000D01*
X48136000Y8278000D02*
X48136000Y18558000D01*
X42836000Y8278000D02*
X48136000Y8278000D01*
X48136000Y18558000D02*
X46486000Y18558000D01*
X44486000Y18558000D02*
X42836000Y18558000D01*
X44486000Y18558000D02*
G75*
G03*
X46486000Y18558000I1000000J0D01*
G01*
%TO.C,G\u002A\u002A\u002A*%
G36*
X121484320Y77960916D02*
G01*
X121660534Y78226908D01*
X121900039Y78410128D01*
X122182822Y78497729D01*
X122487512Y78498805D01*
X122762074Y78415557D01*
X122836428Y78370506D01*
X123028267Y78233905D01*
X123046936Y78765564D01*
X123065606Y79297222D01*
X123450454Y79297222D01*
X123467717Y77870076D01*
X123484979Y76442929D01*
X123259257Y76442929D01*
X123092032Y76463925D01*
X123033861Y76530503D01*
X123033535Y76538199D01*
X123014148Y76589032D01*
X122938421Y76570491D01*
X122825076Y76506368D01*
X122545379Y76402226D01*
X122228130Y76385529D01*
X121928693Y76456364D01*
X121833471Y76504794D01*
X121596312Y76718414D01*
X121443807Y76999164D01*
X121374966Y77318716D01*
X121380496Y77450651D01*
X121804514Y77450651D01*
X121843404Y77204215D01*
X121960464Y76988807D01*
X122145420Y76832804D01*
X122387998Y76764580D01*
X122422173Y76763636D01*
X122667695Y76815199D01*
X122809347Y76918466D01*
X122968399Y77149934D01*
X123029110Y77403974D01*
X123000475Y77653697D01*
X122891486Y77872214D01*
X122711136Y78032637D01*
X122468421Y78108077D01*
X122410608Y78110606D01*
X122195725Y78066511D01*
X122002339Y77923116D01*
X121854067Y77699743D01*
X121804514Y77450651D01*
X121380496Y77450651D01*
X121388800Y77648742D01*
X121484320Y77960916D01*
G37*
G36*
X121814848Y67719697D02*
G01*
X121365858Y67719697D01*
X121365858Y69772222D01*
X121814848Y69772222D01*
X121814848Y67719697D01*
G37*
G36*
X117729530Y77456131D02*
G01*
X117778323Y77505298D01*
X117887170Y77600377D01*
X117992673Y77656638D01*
X118132623Y77684173D01*
X118344814Y77693072D01*
X118483893Y77693687D01*
X118741503Y77697411D01*
X118895670Y77712066D01*
X118971104Y77742878D01*
X118992518Y77795075D01*
X118992640Y77801279D01*
X118945532Y77911405D01*
X118830686Y78036166D01*
X118816237Y78047917D01*
X118645863Y78144758D01*
X118450868Y78160341D01*
X118390493Y78153704D01*
X118202687Y78107911D01*
X118060753Y78037882D01*
X118044554Y78023861D01*
X117960898Y77962904D01*
X117871080Y77981423D01*
X117794182Y78028042D01*
X117640394Y78128808D01*
X117783166Y78280781D01*
X118014297Y78440909D01*
X118311182Y78525995D01*
X118633826Y78533620D01*
X118942234Y78461363D01*
X119127940Y78362165D01*
X119255279Y78238295D01*
X119345384Y78063748D01*
X119403141Y77818844D01*
X119433436Y77483909D01*
X119441258Y77100379D01*
X119441616Y76442929D01*
X119217121Y76442929D01*
X119050380Y76464162D01*
X118992881Y76531371D01*
X118992626Y76538199D01*
X118973239Y76589032D01*
X118897512Y76570491D01*
X118784167Y76506368D01*
X118529132Y76409326D01*
X118239372Y76385718D01*
X117973982Y76438114D01*
X117909282Y76468298D01*
X117712470Y76647568D01*
X117602886Y76908609D01*
X117583788Y77088379D01*
X117586825Y77107799D01*
X118046086Y77107799D01*
X118072599Y76930933D01*
X118203402Y76793201D01*
X118222929Y76782681D01*
X118421899Y76733339D01*
X118639707Y76788078D01*
X118779302Y76864818D01*
X118921130Y77001228D01*
X118972808Y77154812D01*
X118925434Y77289622D01*
X118892015Y77319986D01*
X118716013Y77389784D01*
X118493453Y77404736D01*
X118279848Y77367609D01*
X118131504Y77282057D01*
X118046086Y77107799D01*
X117586825Y77107799D01*
X117614547Y77285037D01*
X117729530Y77456131D01*
G37*
G36*
X99246176Y69847236D02*
G01*
X99163401Y69988636D01*
X98672812Y70830556D01*
X98327978Y70868671D01*
X98048963Y70913117D01*
X97842972Y70990471D01*
X97659355Y71126988D01*
X97487309Y71304425D01*
X97281289Y71619225D01*
X97188848Y71964363D01*
X97200127Y72187432D01*
X97772971Y72187432D01*
X97782078Y71961430D01*
X97898736Y71732126D01*
X97898960Y71731841D01*
X98121850Y71528761D01*
X98370722Y71450812D01*
X98642103Y71498814D01*
X98725223Y71536775D01*
X98930653Y71706262D01*
X99038654Y71932265D01*
X99045053Y72183216D01*
X98945681Y72427544D01*
X98857156Y72535237D01*
X98640862Y72681120D01*
X98412145Y72723109D01*
X98191002Y72677970D01*
X97997428Y72562467D01*
X97851419Y72393366D01*
X97772971Y72187432D01*
X97200127Y72187432D01*
X97206692Y72317280D01*
X97331531Y72655422D01*
X97560071Y72956230D01*
X97751334Y73113360D01*
X97910256Y73203192D01*
X98084452Y73250643D01*
X98322972Y73267241D01*
X98409043Y73267929D01*
X98662086Y73260041D01*
X98840070Y73226771D01*
X98995748Y73153711D01*
X99113585Y73075505D01*
X99406570Y72801702D01*
X99582595Y72482551D01*
X99640810Y72127254D01*
X99580362Y71745014D01*
X99400398Y71345034D01*
X99289591Y71174842D01*
X99269705Y71113541D01*
X99286962Y71018510D01*
X99349167Y70871708D01*
X99464124Y70655096D01*
X99639638Y70350633D01*
X99664199Y70308933D01*
X100113225Y69547727D01*
X101854128Y69530664D01*
X103595031Y69513602D01*
X103724550Y69767479D01*
X103948468Y70078816D01*
X104240889Y70297772D01*
X104577587Y70419618D01*
X104934339Y70439626D01*
X105286920Y70353068D01*
X105611106Y70155214D01*
X105629538Y70139338D01*
X105875953Y69854726D01*
X106007222Y69525796D01*
X106036060Y69233256D01*
X105980329Y68841715D01*
X105819946Y68508714D01*
X105565129Y68250669D01*
X105348600Y68128716D01*
X105098961Y68064381D01*
X104798762Y68046496D01*
X104504873Y68074083D01*
X104274164Y68146166D01*
X104272172Y68147212D01*
X104008469Y68316581D01*
X103822931Y68520043D01*
X103718841Y68697854D01*
X103596080Y68938384D01*
X101713065Y68938384D01*
X101165133Y68939066D01*
X100731496Y68941604D01*
X100398171Y68946737D01*
X100151175Y68955204D01*
X99976525Y68967745D01*
X99860237Y68985098D01*
X99788330Y69008002D01*
X99746818Y69037195D01*
X99742020Y69042550D01*
X99679744Y69132960D01*
X99567207Y69312152D01*
X99541763Y69354059D01*
X104201986Y69354059D01*
X104204291Y69125591D01*
X104301823Y68896609D01*
X104470166Y68712874D01*
X104577392Y68650487D01*
X104840103Y68590841D01*
X105077715Y68653225D01*
X105282399Y68817296D01*
X105432513Y69054383D01*
X105458138Y69302595D01*
X105359515Y69543929D01*
X105271297Y69648873D01*
X105042817Y69799150D01*
X104792411Y69840907D01*
X104550609Y69782563D01*
X104347941Y69632534D01*
X104214935Y69399237D01*
X104201986Y69354059D01*
X99541763Y69354059D01*
X99418115Y69557715D01*
X99246176Y69847236D01*
G37*
G36*
X115956434Y70634450D02*
G01*
X116112970Y70613152D01*
X116228807Y70558861D01*
X116347729Y70456199D01*
X116409865Y70394211D01*
X116546561Y70251328D01*
X116602354Y70166869D01*
X116588101Y70109612D01*
X116526958Y70057469D01*
X116358965Y69975845D01*
X116218464Y69984325D01*
X116146839Y70061821D01*
X116037381Y70187838D01*
X115857223Y70250613D01*
X115647100Y70250460D01*
X115447746Y70187691D01*
X115299895Y70062618D01*
X115294945Y70055285D01*
X115237100Y69890304D01*
X115294293Y69739981D01*
X115470729Y69599473D01*
X115770615Y69463936D01*
X115825867Y69443960D01*
X116223876Y69263472D01*
X116509857Y69045190D01*
X116680043Y68794916D01*
X116730663Y68518452D01*
X116657949Y68221600D01*
X116642044Y68187511D01*
X116476864Y67973385D01*
X116230226Y67795582D01*
X115948679Y67681971D01*
X115753485Y67655556D01*
X115576395Y67684925D01*
X115359435Y67759033D01*
X115270497Y67799874D01*
X115086798Y67919633D01*
X114918878Y68074190D01*
X114791123Y68234509D01*
X114727923Y68371550D01*
X114734869Y68437625D01*
X114820364Y68506965D01*
X114910174Y68549829D01*
X115010979Y68562666D01*
X115114405Y68506240D01*
X115253566Y68361983D01*
X115261387Y68352910D01*
X115407368Y68200457D01*
X115535866Y68126991D01*
X115701136Y68105147D01*
X115753827Y68104545D01*
X115956412Y68122490D01*
X116090243Y68191748D01*
X116165749Y68273549D01*
X116257868Y68416057D01*
X116298582Y68529295D01*
X116298687Y68533030D01*
X116239378Y68674397D01*
X116075258Y68826355D01*
X115827037Y68973021D01*
X115599178Y69069611D01*
X115246562Y69223642D01*
X115008782Y69392622D01*
X114872399Y69590296D01*
X114823973Y69830411D01*
X114823434Y69863040D01*
X114840194Y70070337D01*
X114907922Y70231106D01*
X115043001Y70398543D01*
X115164439Y70523936D01*
X115268603Y70595576D01*
X115397670Y70628491D01*
X115593818Y70637710D01*
X115715416Y70638131D01*
X115956434Y70634450D01*
G37*
G36*
X108041410Y69006001D02*
G01*
X108283594Y69277792D01*
X108367079Y69348503D01*
X108509260Y69453406D01*
X108640871Y69514224D01*
X108806210Y69543601D01*
X109049576Y69554177D01*
X109090101Y69554843D01*
X109566699Y69561958D01*
X110018332Y70322160D01*
X110203863Y70640362D01*
X110327606Y70869652D01*
X110397717Y71028656D01*
X110422352Y71135998D01*
X110409668Y71210305D01*
X110408419Y71213024D01*
X110359803Y71303173D01*
X110255865Y71487116D01*
X110106275Y71748045D01*
X109920701Y72069152D01*
X109708811Y72433627D01*
X109543899Y72716003D01*
X108740925Y74088319D01*
X108351482Y74098317D01*
X108092665Y74118483D01*
X107898686Y74175523D01*
X107707375Y74288276D01*
X107694282Y74297465D01*
X107413897Y74565862D01*
X107238564Y74885706D01*
X107168715Y75234203D01*
X107176701Y75312661D01*
X107767879Y75312661D01*
X107806430Y75040270D01*
X107932319Y74845549D01*
X108074163Y74743784D01*
X108290344Y74679457D01*
X108534308Y74687226D01*
X108743190Y74763123D01*
X108777730Y74788184D01*
X108911205Y74964374D01*
X108995450Y75198993D01*
X109006741Y75424748D01*
X109005192Y75433422D01*
X108934069Y75590832D01*
X108802310Y75751196D01*
X108773628Y75776863D01*
X108543159Y75899042D01*
X108299591Y75914258D01*
X108072292Y75836065D01*
X107890626Y75678017D01*
X107783961Y75453667D01*
X107767879Y75312661D01*
X107176701Y75312661D01*
X107204785Y75588557D01*
X107347209Y75925974D01*
X107596422Y76223660D01*
X107656616Y76274434D01*
X107954689Y76436128D01*
X108297799Y76502384D01*
X108652617Y76477364D01*
X108985815Y76365234D01*
X109264063Y76170157D01*
X109358514Y76061811D01*
X109540356Y75717597D01*
X109610447Y75345919D01*
X109567813Y74974939D01*
X109411484Y74632820D01*
X109407986Y74627635D01*
X109255527Y74402973D01*
X110178316Y72809189D01*
X110415743Y72395479D01*
X110630614Y72014080D01*
X110814751Y71680074D01*
X110959972Y71408545D01*
X111058099Y71214576D01*
X111100951Y71113248D01*
X111102168Y71105714D01*
X111071171Y71015097D01*
X110984892Y70836213D01*
X110854544Y70590495D01*
X110691339Y70299380D01*
X110582123Y70111522D01*
X110387177Y69778538D01*
X110250293Y69535975D01*
X110163452Y69364303D01*
X110118635Y69243991D01*
X110107820Y69155508D01*
X110122988Y69079322D01*
X110139906Y69034596D01*
X110268693Y68651934D01*
X110310735Y68330965D01*
X110274672Y68059356D01*
X110119927Y67710572D01*
X109877902Y67437639D01*
X109571522Y67250742D01*
X109223710Y67160069D01*
X108857391Y67175805D01*
X108535989Y67286742D01*
X108292800Y67454434D01*
X108080430Y67677308D01*
X108058442Y67707666D01*
X107938091Y67908570D01*
X107880801Y68099927D01*
X107866229Y68349599D01*
X107869773Y68380317D01*
X108473434Y68380317D01*
X108524462Y68105412D01*
X108660408Y67895670D01*
X108855568Y67762885D01*
X109084240Y67718850D01*
X109320719Y67775359D01*
X109504631Y67907187D01*
X109651478Y68129669D01*
X109695509Y68374235D01*
X109647723Y68612330D01*
X109519116Y68815400D01*
X109320685Y68954889D01*
X109082778Y69002525D01*
X108828070Y68944147D01*
X108624814Y68787320D01*
X108499904Y68559505D01*
X108473434Y68380317D01*
X107869773Y68380317D01*
X107907446Y68706889D01*
X108041410Y69006001D01*
G37*
G36*
X123771119Y69796819D02*
G01*
X123953392Y69704640D01*
X124084488Y69562209D01*
X124173750Y69363610D01*
X124225443Y69089808D01*
X124243830Y68721766D01*
X124240009Y68425253D01*
X124220151Y67751768D01*
X123835303Y67751768D01*
X123803232Y68510812D01*
X123786714Y68842091D01*
X123767320Y69068854D01*
X123740674Y69214856D01*
X123702398Y69303857D01*
X123648116Y69359614D01*
X123646655Y69360686D01*
X123433828Y69443061D01*
X123198709Y69421783D01*
X123024606Y69329131D01*
X122958117Y69265597D01*
X122912597Y69185124D01*
X122882439Y69061741D01*
X122862036Y68869476D01*
X122845779Y68582358D01*
X122841111Y68479258D01*
X122809040Y67751768D01*
X122600581Y67731668D01*
X122392121Y67711569D01*
X122392121Y69772222D01*
X122584545Y69772222D01*
X122737312Y69743537D01*
X122776970Y69676010D01*
X122793746Y69595407D01*
X122857890Y69598440D01*
X122990129Y69687892D01*
X123016033Y69708081D01*
X123234867Y69809629D01*
X123504849Y69839141D01*
X123771119Y69796819D01*
G37*
G36*
X127522028Y74132071D02*
G01*
X127746738Y73991127D01*
X127775056Y73967802D01*
X127928724Y73805878D01*
X127960488Y73678899D01*
X127870705Y73582979D01*
X127813033Y73556932D01*
X127685729Y73532170D01*
X127572225Y73585193D01*
X127487450Y73662523D01*
X127356390Y73769863D01*
X127220223Y73805114D01*
X127053633Y73792818D01*
X126791171Y73701707D01*
X126604076Y73523968D01*
X126502805Y73283623D01*
X126497815Y73004691D01*
X126590359Y72728577D01*
X126753355Y72538007D01*
X126976999Y72438202D01*
X127227000Y72433653D01*
X127469064Y72528854D01*
X127561865Y72601290D01*
X127690327Y72686616D01*
X127828429Y72675747D01*
X127866536Y72662265D01*
X127995954Y72596903D01*
X128022992Y72521042D01*
X127947174Y72409198D01*
X127860177Y72321889D01*
X127559430Y72118766D01*
X127213679Y72023765D01*
X126854843Y72042564D01*
X126654345Y72107393D01*
X126412632Y72269816D01*
X126210298Y72508486D01*
X126086365Y72775086D01*
X126074904Y72824890D01*
X126054198Y73216602D01*
X126137936Y73563942D01*
X126315099Y73850164D01*
X126574670Y74058524D01*
X126905630Y74172274D01*
X126967088Y74180874D01*
X127278133Y74191104D01*
X127522028Y74132071D01*
G37*
G36*
X100251636Y71886727D02*
G01*
X100256207Y71892968D01*
X100347504Y72037088D01*
X100391018Y72146362D01*
X100391616Y72154547D01*
X100360603Y72228570D01*
X100273052Y72398368D01*
X100137198Y72648985D01*
X99961276Y72965466D01*
X99753518Y73332854D01*
X99522159Y73736195D01*
X99493636Y73785549D01*
X99259688Y74193742D01*
X99048449Y74569421D01*
X98868193Y74897299D01*
X98727191Y75162088D01*
X98633716Y75348503D01*
X98596039Y75441254D01*
X98595656Y75445048D01*
X98626685Y75534735D01*
X98712396Y75713269D01*
X98841731Y75959341D01*
X99003629Y76251641D01*
X99116111Y76447777D01*
X99636566Y77343582D01*
X99500960Y77658808D01*
X99390261Y77998816D01*
X99382418Y78193953D01*
X100006768Y78193953D01*
X100058449Y77907464D01*
X100198872Y77695566D01*
X100406105Y77572008D01*
X100658217Y77550538D01*
X100906031Y77630209D01*
X101104739Y77793063D01*
X101208972Y78005741D01*
X101225733Y78239593D01*
X101162028Y78465967D01*
X101024859Y78656214D01*
X100821231Y78781681D01*
X100616111Y78816162D01*
X100361403Y78757783D01*
X100158147Y78600956D01*
X100033237Y78373141D01*
X100006768Y78193953D01*
X99382418Y78193953D01*
X99378142Y78300333D01*
X99463009Y78605002D01*
X99464627Y78608887D01*
X99668936Y78947215D01*
X99949426Y79195641D01*
X100284234Y79345459D01*
X100651497Y79387961D01*
X101029352Y79314442D01*
X101131896Y79272870D01*
X101448683Y79071050D01*
X101667590Y78812163D01*
X101794012Y78515239D01*
X101833347Y78199308D01*
X101790988Y77883398D01*
X101672333Y77586540D01*
X101482776Y77327763D01*
X101227713Y77126097D01*
X100912541Y77000571D01*
X100542654Y76970215D01*
X100480431Y76975287D01*
X100142150Y77010201D01*
X99685751Y76232185D01*
X99486391Y75882342D01*
X99355195Y75627115D01*
X99287226Y75455700D01*
X99277550Y75357296D01*
X99281318Y75347111D01*
X99326859Y75263688D01*
X99427413Y75085763D01*
X99573574Y74829773D01*
X99755938Y74512149D01*
X99965098Y74149327D01*
X100135050Y73855438D01*
X100936818Y72470826D01*
X101257525Y72467085D01*
X101662466Y72406943D01*
X102007819Y72244500D01*
X102277958Y71991701D01*
X102457259Y71660493D01*
X102497828Y71518790D01*
X102525212Y71139899D01*
X102443461Y70794692D01*
X102270248Y70497477D01*
X102023248Y70262557D01*
X101720135Y70104239D01*
X101378585Y70036828D01*
X101016272Y70074629D01*
X100805882Y70149352D01*
X100508824Y70344623D01*
X100282413Y70613222D01*
X100135069Y70928440D01*
X100075212Y71263568D01*
X100081108Y71317268D01*
X100678538Y71317268D01*
X100709073Y71070822D01*
X100741132Y70997217D01*
X100876550Y70822237D01*
X101063106Y70681047D01*
X101249713Y70610790D01*
X101275621Y70608629D01*
X101386525Y70630294D01*
X101550440Y70686756D01*
X101575129Y70696843D01*
X101789772Y70843200D01*
X101910557Y71043671D01*
X101942104Y71270160D01*
X101889036Y71494574D01*
X101755973Y71688815D01*
X101547536Y71824791D01*
X101382574Y71867499D01*
X101121361Y71847811D01*
X100904043Y71732031D01*
X100749982Y71546427D01*
X100678538Y71317268D01*
X100081108Y71317268D01*
X100111261Y71591900D01*
X100251636Y71886727D01*
G37*
G36*
X117357020Y69772222D02*
G01*
X117523761Y69750990D01*
X117581260Y69683781D01*
X117581515Y69676953D01*
X117600903Y69626120D01*
X117676629Y69644661D01*
X117789975Y69708784D01*
X118073162Y69814012D01*
X118393324Y69828965D01*
X118696414Y69753767D01*
X118787896Y69706516D01*
X119008864Y69501627D01*
X119159906Y69218661D01*
X119233919Y68891389D01*
X119223804Y68553577D01*
X119122458Y68238997D01*
X119103783Y68204332D01*
X118898930Y67951134D01*
X118634136Y67779719D01*
X118338894Y67698176D01*
X118042694Y67714588D01*
X117775030Y67837043D01*
X117772083Y67839210D01*
X117581515Y67980103D01*
X117581515Y66885859D01*
X117132525Y66885859D01*
X117132525Y68624771D01*
X117589360Y68624771D01*
X117623603Y68479083D01*
X117717524Y68338034D01*
X117740670Y68310091D01*
X117880005Y68172876D01*
X118027763Y68114592D01*
X118190858Y68104545D01*
X118391948Y68122576D01*
X118532152Y68195852D01*
X118634147Y68301891D01*
X118768840Y68542137D01*
X118805877Y68799879D01*
X118755741Y69047398D01*
X118628916Y69256970D01*
X118435886Y69400876D01*
X118199369Y69451515D01*
X117933266Y69397348D01*
X117738953Y69239651D01*
X117623459Y68985627D01*
X117598449Y68835484D01*
X117589360Y68624771D01*
X117132525Y68624771D01*
X117132525Y69772222D01*
X117357020Y69772222D01*
G37*
G36*
X102688860Y73542833D02*
G01*
X102814350Y73785026D01*
X102966864Y74065676D01*
X103133031Y74361163D01*
X103299483Y74647867D01*
X103452849Y74902169D01*
X103579761Y75100448D01*
X103666850Y75219085D01*
X103688053Y75239296D01*
X103787621Y75262490D01*
X103987526Y75278577D01*
X104260999Y75287919D01*
X104581268Y75290878D01*
X104921564Y75287816D01*
X105255116Y75279097D01*
X105555153Y75265082D01*
X105794906Y75246134D01*
X105947604Y75222616D01*
X105984358Y75208207D01*
X106049394Y75127419D01*
X106164338Y74955501D01*
X106316149Y74713103D01*
X106491788Y74420871D01*
X106615903Y74208172D01*
X107146349Y73288313D01*
X107012221Y73021556D01*
X106927861Y72863967D01*
X106794978Y72627488D01*
X106631242Y72343116D01*
X106454323Y72041847D01*
X106439670Y72017172D01*
X106001247Y71279545D01*
X104880144Y71263672D01*
X104510363Y71261163D01*
X104183199Y71264092D01*
X103921055Y71271846D01*
X103746336Y71283814D01*
X103683966Y71296374D01*
X103616927Y71375026D01*
X103504717Y71543409D01*
X103360706Y71777805D01*
X103198263Y72054497D01*
X103030757Y72349767D01*
X102871559Y72639897D01*
X102734037Y72901168D01*
X102631560Y73109864D01*
X102577499Y73242266D01*
X102572424Y73268295D01*
X102573541Y73271660D01*
X103215831Y73271660D01*
X103247079Y73189630D01*
X103335170Y73019501D01*
X103468539Y72781696D01*
X103635621Y72496635D01*
X103824851Y72184742D01*
X103899008Y72065278D01*
X104049286Y71824748D01*
X104808237Y71824748D01*
X105141942Y71827400D01*
X105371117Y71837431D01*
X105519446Y71857948D01*
X105610609Y71892061D01*
X105663389Y71936995D01*
X105747344Y72051929D01*
X105867211Y72236871D01*
X106006702Y72464052D01*
X106149530Y72705706D01*
X106279410Y72934065D01*
X106380054Y73121360D01*
X106435174Y73239825D01*
X106440830Y73262465D01*
X106408162Y73348445D01*
X106322618Y73514714D01*
X106200589Y73733585D01*
X106058466Y73977371D01*
X105912640Y74218384D01*
X105779501Y74428939D01*
X105675440Y74581347D01*
X105623187Y74643612D01*
X105511194Y74677470D01*
X105279636Y74696422D01*
X104936422Y74699967D01*
X104778413Y74697171D01*
X104020021Y74679040D01*
X103618923Y74005556D01*
X103464147Y73741236D01*
X103336769Y73515268D01*
X103249710Y73351178D01*
X103215889Y73272488D01*
X103215831Y73271660D01*
X102573541Y73271660D01*
X102603761Y73362716D01*
X102688860Y73542833D01*
G37*
G36*
X116958595Y79317138D02*
G01*
X117164596Y79297222D01*
X117181858Y77870076D01*
X117199121Y76442929D01*
X116747677Y76442929D01*
X116747677Y77661616D01*
X115336566Y77661616D01*
X115336566Y76442929D01*
X114885121Y76442929D01*
X114902384Y77870076D01*
X114919646Y79297222D01*
X115304495Y79297222D01*
X115322966Y78701769D01*
X115341436Y78106315D01*
X116715606Y78142677D01*
X116734100Y78739865D01*
X116752593Y79337054D01*
X116958595Y79317138D01*
G37*
G36*
X118455860Y74152086D02*
G01*
X118515853Y74061855D01*
X118531391Y73961119D01*
X118536730Y73836948D01*
X118499960Y73774153D01*
X118389317Y73747464D01*
X118249209Y73736624D01*
X118029583Y73701943D01*
X117871661Y73619154D01*
X117765053Y73470428D01*
X117699368Y73237937D01*
X117664217Y72903854D01*
X117655681Y72718211D01*
X117633635Y72081313D01*
X117260808Y72081313D01*
X117260808Y74133838D01*
X117453232Y74133838D01*
X117594428Y74113405D01*
X117643880Y74038103D01*
X117645656Y74007489D01*
X117653578Y73935390D01*
X117696094Y73927334D01*
X117801331Y73987475D01*
X117883611Y74042619D01*
X118139177Y74166572D01*
X118316566Y74185005D01*
X118455860Y74152086D01*
G37*
G36*
X128987630Y74699848D02*
G01*
X129045273Y74642348D01*
X129070050Y74503045D01*
X129075176Y74438510D01*
X129094602Y74266878D01*
X129142582Y74184831D01*
X129253429Y74153802D01*
X129335429Y74146002D01*
X129493874Y74122302D01*
X129561547Y74065741D01*
X129575957Y73944418D01*
X129575959Y73941414D01*
X129562171Y73818618D01*
X129495801Y73761165D01*
X129339342Y73737152D01*
X129335429Y73736827D01*
X129094899Y73716919D01*
X129075915Y73320338D01*
X129074549Y73067322D01*
X129091012Y72832527D01*
X129111696Y72710995D01*
X129165022Y72567275D01*
X129256351Y72501504D01*
X129407145Y72478095D01*
X129563952Y72455551D01*
X129626522Y72404161D01*
X129628898Y72294256D01*
X129627930Y72285670D01*
X129602194Y72178551D01*
X129533075Y72123905D01*
X129383917Y72099365D01*
X129314255Y72094279D01*
X129074468Y72102605D01*
X128901903Y72173355D01*
X128865265Y72200626D01*
X128795830Y72266522D01*
X128748809Y72348472D01*
X128718067Y72473366D01*
X128697469Y72668092D01*
X128680882Y72959538D01*
X128677980Y73021499D01*
X128645909Y73716919D01*
X128469520Y73737215D01*
X128340471Y73774971D01*
X128295895Y73875460D01*
X128293131Y73941414D01*
X128315103Y74078489D01*
X128406566Y74135488D01*
X128469520Y74145613D01*
X128582463Y74173045D01*
X128638413Y74246306D01*
X128662955Y74403610D01*
X128665632Y74438510D01*
X128685686Y74609999D01*
X128730419Y74688787D01*
X128826548Y74710440D01*
X128870404Y74711111D01*
X128987630Y74699848D01*
G37*
G36*
X124011692Y74121867D02*
G01*
X124220151Y74101768D01*
X124252222Y73342723D01*
X124268740Y73011444D01*
X124288134Y72784682D01*
X124314780Y72638679D01*
X124353056Y72549678D01*
X124407338Y72493922D01*
X124408800Y72492849D01*
X124618362Y72408513D01*
X124835808Y72449682D01*
X125026853Y72589511D01*
X125110253Y72678138D01*
X125164333Y72763209D01*
X125195439Y72874034D01*
X125209919Y73039921D01*
X125214117Y73290180D01*
X125214343Y73455420D01*
X125214343Y74133838D01*
X125663333Y74133838D01*
X125663333Y72081313D01*
X125470909Y72081313D01*
X125318142Y72109998D01*
X125278485Y72177525D01*
X125270347Y72248427D01*
X125227594Y72264506D01*
X125122719Y72222860D01*
X124974530Y72145455D01*
X124652205Y72035622D01*
X124331515Y72044024D01*
X124204521Y72083162D01*
X124075640Y72175743D01*
X123947900Y72327064D01*
X123932160Y72351697D01*
X123876512Y72460116D01*
X123839350Y72586947D01*
X123817144Y72759644D01*
X123806361Y73005662D01*
X123803472Y73352170D01*
X123803232Y74141966D01*
X124011692Y74121867D01*
G37*
G36*
X115512954Y74967577D02*
G01*
X115858694Y74959880D01*
X116106873Y74934264D01*
X116287452Y74886751D01*
X116358269Y74855330D01*
X116625003Y74657597D01*
X116795582Y74399011D01*
X116860620Y74104697D01*
X116810733Y73799781D01*
X116779939Y73726383D01*
X116612004Y73486384D01*
X116364013Y73320283D01*
X116021801Y73220433D01*
X115788362Y73190988D01*
X115336566Y73153111D01*
X115336566Y72081313D01*
X114887576Y72081313D01*
X114887576Y73620707D01*
X115336566Y73620707D01*
X115724330Y73620707D01*
X115959607Y73629545D01*
X116112580Y73664775D01*
X116228533Y73739475D01*
X116269532Y73778145D01*
X116400146Y73962445D01*
X116408035Y74145524D01*
X116294147Y74349536D01*
X116294031Y74349683D01*
X116206619Y74443074D01*
X116104419Y74494056D01*
X115947280Y74515077D01*
X115748829Y74518687D01*
X115336566Y74518687D01*
X115336566Y73620707D01*
X114887576Y73620707D01*
X114887576Y74967677D01*
X115512954Y74967577D01*
G37*
G36*
X121768668Y70616367D02*
G01*
X121867256Y70471434D01*
X121878990Y70381566D01*
X121825154Y70203251D01*
X121680221Y70104663D01*
X121590353Y70092929D01*
X121443160Y70127665D01*
X121378687Y70169899D01*
X121299975Y70323194D01*
X121320430Y70486071D01*
X121422030Y70615934D01*
X121586752Y70670181D01*
X121590353Y70670202D01*
X121768668Y70616367D01*
G37*
G36*
X101525636Y67693232D02*
G01*
X101653196Y67895101D01*
X101926875Y68169471D01*
X102223124Y68329688D01*
X102569758Y68389777D01*
X102636944Y68391044D01*
X103037501Y68335828D01*
X103371820Y68170801D01*
X103638410Y67896898D01*
X103762645Y67686002D01*
X103936121Y67331428D01*
X104840474Y67349174D01*
X105744826Y67366919D01*
X106595189Y68810101D01*
X106824013Y69201767D01*
X107029600Y69560032D01*
X107203276Y69869258D01*
X107336366Y70113810D01*
X107420198Y70278050D01*
X107446362Y70344444D01*
X107407797Y70466105D01*
X107360042Y70536869D01*
X107208431Y70803963D01*
X107142180Y71129593D01*
X107153675Y71301895D01*
X107736772Y71301895D01*
X107741391Y71174648D01*
X107809050Y71010721D01*
X107813061Y71002513D01*
X107986966Y70760859D01*
X108208457Y70635102D01*
X108465456Y70629478D01*
X108667142Y70702937D01*
X108872243Y70861576D01*
X108971890Y71081229D01*
X108986566Y71245515D01*
X108928734Y71512985D01*
X108764769Y71717466D01*
X108540910Y71831327D01*
X108267097Y71853926D01*
X108026237Y71760055D01*
X107841585Y71561157D01*
X107791973Y71462772D01*
X107736772Y71301895D01*
X107153675Y71301895D01*
X107165107Y71473262D01*
X107247695Y71728535D01*
X107453656Y72043883D01*
X107723830Y72268710D01*
X108036573Y72404387D01*
X108370244Y72452281D01*
X108703201Y72413763D01*
X109013800Y72290200D01*
X109280401Y72082961D01*
X109481360Y71793415D01*
X109561016Y71582225D01*
X109613054Y71362589D01*
X109620454Y71191021D01*
X109583216Y70995323D01*
X109561016Y70912724D01*
X109403290Y70566892D01*
X109148523Y70300705D01*
X108804650Y70120080D01*
X108379610Y70030934D01*
X108377865Y70030778D01*
X107993659Y69996717D01*
X107086188Y68457323D01*
X106846570Y68052417D01*
X106625365Y67681608D01*
X106431688Y67359940D01*
X106274653Y67102457D01*
X106163377Y66924201D01*
X106106973Y66840217D01*
X106104860Y66837753D01*
X106033187Y66805748D01*
X105877849Y66782540D01*
X105627027Y66767333D01*
X105268906Y66759330D01*
X104915379Y66757576D01*
X104511461Y66756729D01*
X104217512Y66752883D01*
X104015221Y66744086D01*
X103886280Y66728380D01*
X103812377Y66703812D01*
X103775203Y66668426D01*
X103760624Y66634282D01*
X103666785Y66481801D01*
X103494456Y66308451D01*
X103282203Y66145851D01*
X103068589Y66025619D01*
X102977848Y65992505D01*
X102707557Y65937233D01*
X102475458Y65945410D01*
X102295652Y65988960D01*
X101969989Y66146136D01*
X101712155Y66387001D01*
X101530475Y66686848D01*
X101433278Y67020973D01*
X101431649Y67148533D01*
X102011441Y67148533D01*
X102065098Y66920865D01*
X102199419Y66737058D01*
X102390986Y66611969D01*
X102616379Y66560452D01*
X102852182Y66597366D01*
X103074976Y66737567D01*
X103090489Y66752642D01*
X103246761Y66984381D01*
X103278495Y67232834D01*
X103185536Y67483325D01*
X103099413Y67596816D01*
X102884584Y67753538D01*
X102640321Y67803370D01*
X102398373Y67752176D01*
X102190490Y67605820D01*
X102061867Y67405204D01*
X102011441Y67148533D01*
X101431649Y67148533D01*
X101428889Y67364669D01*
X101525636Y67693232D01*
G37*
G36*
X131154248Y78132692D02*
G01*
X131398790Y78358306D01*
X131497757Y78415278D01*
X131806201Y78532494D01*
X132087260Y78544474D01*
X132386068Y78451801D01*
X132438217Y78427458D01*
X132666547Y78259968D01*
X132845656Y78022188D01*
X132950408Y77755981D01*
X132963922Y77551886D01*
X132943384Y77372980D01*
X132157651Y77354970D01*
X131793506Y77342413D01*
X131547074Y77319553D01*
X131407829Y77279284D01*
X131365240Y77214499D01*
X131408779Y77118089D01*
X131527917Y76982948D01*
X131559409Y76951127D01*
X131790928Y76798455D01*
X132051786Y76769022D01*
X132333716Y76863418D01*
X132383697Y76892159D01*
X132575467Y76991969D01*
X132714764Y77012213D01*
X132844540Y76959057D01*
X132845491Y76958457D01*
X132895021Y76903550D01*
X132864346Y76825262D01*
X132781349Y76728850D01*
X132619352Y76583177D01*
X132450972Y76469689D01*
X132449473Y76468906D01*
X132214856Y76399660D01*
X131926078Y76386669D01*
X131644256Y76429904D01*
X131532273Y76469333D01*
X131251844Y76656496D01*
X131057785Y76913532D01*
X130950546Y77215056D01*
X130930576Y77535682D01*
X130976871Y77750474D01*
X131401415Y77750474D01*
X131405101Y77723960D01*
X131486014Y77692051D01*
X131654512Y77675376D01*
X131873356Y77672575D01*
X132105304Y77682291D01*
X132313118Y77703166D01*
X132459557Y77733842D01*
X132507375Y77764154D01*
X132487812Y77887851D01*
X132374080Y78012071D01*
X132197571Y78111031D01*
X132031809Y78154748D01*
X131847553Y78166387D01*
X131717415Y78123952D01*
X131577274Y78005045D01*
X131563215Y77991063D01*
X131450868Y77856338D01*
X131401415Y77750474D01*
X130976871Y77750474D01*
X130998327Y77850023D01*
X131154248Y78132692D01*
G37*
G36*
X130707372Y78487864D02*
G01*
X130777370Y78442817D01*
X130794299Y78326898D01*
X130794646Y78274992D01*
X130786711Y78128807D01*
X130737022Y78076289D01*
X130606753Y78085098D01*
X130573127Y78090478D01*
X130411011Y78098204D01*
X130281429Y78042309D01*
X130156208Y77931025D01*
X130067591Y77837297D01*
X130010864Y77749559D01*
X129978917Y77637186D01*
X129964642Y77469552D01*
X129960928Y77216032D01*
X129960808Y77089277D01*
X129960808Y76442929D01*
X129508561Y76442929D01*
X129526225Y77453157D01*
X129533553Y77833360D01*
X129542050Y78104313D01*
X129554628Y78285039D01*
X129574196Y78394558D01*
X129603665Y78451891D01*
X129645947Y78476061D01*
X129683867Y78483312D01*
X129831224Y78447202D01*
X129895668Y78369037D01*
X129967491Y78234835D01*
X130133153Y78365145D01*
X130352393Y78469413D01*
X130546731Y78495455D01*
X130707372Y78487864D01*
G37*
G36*
X118728036Y73497559D02*
G01*
X118888681Y73801102D01*
X119142292Y74025154D01*
X119477309Y74157265D01*
X119652959Y74183519D01*
X120012069Y74158182D01*
X120317981Y74032320D01*
X120560493Y73826272D01*
X120729407Y73560375D01*
X120814521Y73254966D01*
X120805637Y72930384D01*
X120692553Y72606965D01*
X120549363Y72396215D01*
X120283698Y72174403D01*
X119957955Y72046277D01*
X119608429Y72020849D01*
X119313366Y72089232D01*
X119015953Y72272420D01*
X118805878Y72543296D01*
X118691354Y72888574D01*
X118678769Y73042946D01*
X119086083Y73042946D01*
X119164068Y72778591D01*
X119339475Y72567611D01*
X119400123Y72525579D01*
X119612449Y72424141D01*
X119803313Y72412960D01*
X119982613Y72464563D01*
X120126765Y72560744D01*
X120263610Y72714110D01*
X120278794Y72737164D01*
X120377131Y72992566D01*
X120374529Y73250841D01*
X120285748Y73485763D01*
X120125549Y73671110D01*
X119908692Y73780657D01*
X119684105Y73793721D01*
X119408789Y73710608D01*
X119219955Y73538266D01*
X119118349Y73324315D01*
X119086083Y73042946D01*
X118678769Y73042946D01*
X118671919Y73126976D01*
X118728036Y73497559D01*
G37*
G36*
X127264695Y77419789D02*
G01*
X127474925Y77604754D01*
X127752635Y77700680D01*
X128113953Y77712726D01*
X128167080Y77708475D01*
X128379072Y77692212D01*
X128493500Y77698587D01*
X128540368Y77736693D01*
X128549676Y77815621D01*
X128549697Y77824415D01*
X128494915Y77994233D01*
X128350466Y78109724D01*
X128146197Y78163179D01*
X127911954Y78146887D01*
X127677584Y78053137D01*
X127673614Y78050732D01*
X127536936Y77973327D01*
X127457328Y77964425D01*
X127382758Y78025052D01*
X127353508Y78057043D01*
X127281651Y78148559D01*
X127287351Y78217356D01*
X127380275Y78310868D01*
X127410586Y78337061D01*
X127664253Y78478254D01*
X127973530Y78538178D01*
X128297390Y78518897D01*
X128594802Y78422471D01*
X128810440Y78266710D01*
X128875036Y78189938D01*
X128919815Y78104488D01*
X128949250Y77985269D01*
X128967811Y77807189D01*
X128979971Y77545160D01*
X128987749Y77271798D01*
X129008881Y76442929D01*
X128779289Y76442929D01*
X128610544Y76463202D01*
X128550295Y76527846D01*
X128549697Y76538199D01*
X128530309Y76589032D01*
X128454583Y76570491D01*
X128341237Y76506368D01*
X128103731Y76412171D01*
X127853763Y76379028D01*
X127654021Y76397030D01*
X127499986Y76469944D01*
X127356667Y76596869D01*
X127186430Y76837874D01*
X127136292Y77089989D01*
X127136713Y77091428D01*
X127599457Y77091428D01*
X127599949Y77031522D01*
X127673515Y76858041D01*
X127824915Y76757210D01*
X128023137Y76733791D01*
X128237168Y76792546D01*
X128405379Y76907855D01*
X128538153Y77079516D01*
X128550277Y77223839D01*
X128448115Y77331493D01*
X128238027Y77393152D01*
X128066873Y77404175D01*
X127836861Y77363221D01*
X127672325Y77252005D01*
X127599457Y77091428D01*
X127136713Y77091428D01*
X127208201Y77335769D01*
X127264695Y77419789D01*
G37*
G36*
X124160579Y78487270D02*
G01*
X124210860Y78452466D01*
X124258969Y78375344D01*
X124312912Y78239523D01*
X124380697Y78028620D01*
X124470328Y77726253D01*
X124577878Y77356944D01*
X124633663Y77192617D01*
X124681814Y77095538D01*
X124696019Y77084343D01*
X124728948Y77141797D01*
X124789451Y77297951D01*
X124868706Y77528492D01*
X124951992Y77789899D01*
X125169321Y78495455D01*
X125380471Y78495455D01*
X125535430Y78479619D01*
X125624838Y78441181D01*
X125627143Y78437978D01*
X125659585Y78356725D01*
X125720585Y78179985D01*
X125801018Y77934895D01*
X125880292Y77685289D01*
X126097919Y76990077D01*
X126237188Y77470165D01*
X126344675Y77839513D01*
X126424900Y78103864D01*
X126486869Y78281269D01*
X126539585Y78389780D01*
X126592053Y78447449D01*
X126653277Y78472329D01*
X126732263Y78482471D01*
X126742642Y78483483D01*
X126901181Y78475418D01*
X126947022Y78419342D01*
X126928672Y78331525D01*
X126877511Y78144964D01*
X126800311Y77882934D01*
X126703845Y77568713D01*
X126647236Y77389015D01*
X126346590Y76442929D01*
X125861266Y76442929D01*
X125659976Y77100379D01*
X125572802Y77375150D01*
X125494410Y77604282D01*
X125434729Y77759757D01*
X125407922Y77811497D01*
X125370243Y77776087D01*
X125305908Y77639590D01*
X125224140Y77424079D01*
X125139907Y77170083D01*
X124922657Y76475000D01*
X124683136Y76455062D01*
X124495385Y76462495D01*
X124415042Y76519203D01*
X124348223Y76719837D01*
X124262940Y76981680D01*
X124167087Y77279789D01*
X124068557Y77589218D01*
X123975245Y77885025D01*
X123895044Y78142263D01*
X123835847Y78335989D01*
X123805549Y78441259D01*
X123803232Y78452546D01*
X123859565Y78481241D01*
X123997571Y78495197D01*
X124021480Y78495455D01*
X124100121Y78496139D01*
X124160579Y78487270D01*
G37*
G36*
X120893717Y69828862D02*
G01*
X120963704Y69783660D01*
X120980649Y69666715D01*
X120981010Y69611869D01*
X120974338Y69471999D01*
X120930586Y69407116D01*
X120814154Y69388413D01*
X120703554Y69387374D01*
X120484121Y69363621D01*
X120327908Y69277774D01*
X120276142Y69227753D01*
X120207135Y69140933D01*
X120160587Y69036448D01*
X120130261Y68885397D01*
X120109921Y68658878D01*
X120096200Y68393914D01*
X120066215Y67719697D01*
X119698182Y67719697D01*
X119698182Y69772222D01*
X119890606Y69772222D01*
X120043373Y69743537D01*
X120083030Y69676010D01*
X120099806Y69595407D01*
X120163951Y69598440D01*
X120296189Y69687892D01*
X120322094Y69708081D01*
X120534987Y69809292D01*
X120733094Y69836364D01*
X120893717Y69828862D01*
G37*
G36*
X121150277Y78487979D02*
G01*
X121220261Y78442728D01*
X121237211Y78325471D01*
X121237576Y78269738D01*
X121229162Y78121277D01*
X121185747Y78069629D01*
X121080069Y78083557D01*
X121075977Y78084579D01*
X120877735Y78086071D01*
X120668133Y78018369D01*
X120504913Y77903710D01*
X120465427Y77849460D01*
X120439129Y77738338D01*
X120418414Y77532849D01*
X120406028Y77266875D01*
X120403737Y77088560D01*
X120403737Y76442929D01*
X119951490Y76442929D01*
X119969154Y77453157D01*
X119976331Y77833120D01*
X119984494Y78103868D01*
X119996722Y78284454D01*
X120016093Y78393929D01*
X120045687Y78451344D01*
X120088583Y78475751D01*
X120135814Y78484493D01*
X120265902Y78465047D01*
X120319684Y78372246D01*
X120355408Y78269821D01*
X120409080Y78251650D01*
X120514024Y78317080D01*
X120578659Y78367172D01*
X120791552Y78468383D01*
X120989660Y78495455D01*
X121150277Y78487979D01*
G37*
G36*
X121261192Y73539273D02*
G01*
X121425072Y73841252D01*
X121674936Y74053373D01*
X122004215Y74168081D01*
X122080122Y74178790D01*
X122298053Y74181955D01*
X122478958Y74120618D01*
X122600581Y74045387D01*
X122841111Y73881139D01*
X122841111Y74975805D01*
X123049571Y74955705D01*
X123258030Y74935606D01*
X123258030Y72113384D01*
X123049571Y72093285D01*
X122898491Y72096165D01*
X122843022Y72151315D01*
X122841111Y72173461D01*
X122824877Y72256795D01*
X122762177Y72256051D01*
X122632010Y72168771D01*
X122602048Y72145455D01*
X122379193Y72043679D01*
X122100803Y72021917D01*
X121811977Y72080631D01*
X121685565Y72136096D01*
X121421068Y72344405D01*
X121254637Y72633487D01*
X121188414Y72998937D01*
X121189229Y73086606D01*
X121623850Y73086606D01*
X121638192Y72870905D01*
X121699174Y72719275D01*
X121809914Y72589511D01*
X122029845Y72437675D01*
X122267958Y72410597D01*
X122511102Y72493422D01*
X122704086Y72658968D01*
X122814820Y72891408D01*
X122837552Y73154659D01*
X122766531Y73412636D01*
X122679024Y73546929D01*
X122462840Y73726756D01*
X122232689Y73793496D01*
X122011191Y73757018D01*
X121820967Y73627191D01*
X121684636Y73413881D01*
X121624820Y73126957D01*
X121623850Y73086606D01*
X121189229Y73086606D01*
X121189865Y73154991D01*
X121261192Y73539273D01*
G37*
G36*
X125207113Y70389557D02*
G01*
X125306497Y70300236D01*
X125341314Y70120047D01*
X125342626Y70053996D01*
X125347781Y69879389D01*
X125382010Y69797730D01*
X125473463Y69773689D01*
X125567121Y69772222D01*
X125718938Y69760242D01*
X125781089Y69706329D01*
X125791616Y69611869D01*
X125774843Y69503428D01*
X125699365Y69459035D01*
X125567121Y69451515D01*
X125342626Y69451515D01*
X125342626Y68850026D01*
X125351219Y68514936D01*
X125382281Y68291319D01*
X125443739Y68163190D01*
X125543518Y68114566D01*
X125689545Y68129462D01*
X125698805Y68131738D01*
X125810212Y68149036D01*
X125849466Y68101470D01*
X125843956Y67962512D01*
X125819739Y67826219D01*
X125755739Y67762625D01*
X125611976Y67739023D01*
X125567121Y67736038D01*
X125367635Y67744218D01*
X125204165Y67784529D01*
X125182273Y67795524D01*
X125059442Y67881785D01*
X124977474Y67987015D01*
X124928286Y68137619D01*
X124903791Y68360001D01*
X124895905Y68680565D01*
X124895676Y68731528D01*
X124893636Y69390581D01*
X124701212Y69429066D01*
X124558117Y69483548D01*
X124509882Y69587274D01*
X124508788Y69615626D01*
X124541093Y69731502D01*
X124660169Y69780683D01*
X124685177Y69783997D01*
X124793089Y69808504D01*
X124848827Y69873576D01*
X124874149Y70015300D01*
X124881115Y70108965D01*
X124902799Y70298605D01*
X124945069Y70390158D01*
X125020187Y70413636D01*
X125207113Y70389557D01*
G37*
G36*
X100126957Y75685615D02*
G01*
X100287505Y76016923D01*
X100541156Y76271383D01*
X100876512Y76438067D01*
X101282177Y76506050D01*
X101342073Y76507071D01*
X101655235Y76507071D01*
X102514714Y77986132D01*
X102749598Y78388700D01*
X102968922Y78761505D01*
X103162823Y79088030D01*
X103282547Y79287088D01*
X106384193Y79287088D01*
X106437845Y79060009D01*
X106535730Y78924557D01*
X106791520Y78760461D01*
X107049437Y78721784D01*
X107297482Y78808223D01*
X107463207Y78947746D01*
X107613217Y79188091D01*
X107638692Y79437510D01*
X107539860Y79678934D01*
X107452106Y79783217D01*
X107222967Y79930000D01*
X106955199Y79976315D01*
X106694318Y79915058D01*
X106673922Y79904664D01*
X106508176Y79751576D01*
X106409619Y79531664D01*
X106384193Y79287088D01*
X103282547Y79287088D01*
X103321440Y79351753D01*
X103434911Y79536157D01*
X103491095Y79621738D01*
X103536640Y79678174D01*
X103589251Y79719099D01*
X103668562Y79747003D01*
X103794206Y79764381D01*
X103985818Y79773724D01*
X104263030Y79777526D01*
X104645478Y79778279D01*
X104724170Y79778283D01*
X105840342Y79778283D01*
X105938134Y79967391D01*
X106132397Y80216641D01*
X106411412Y80415342D01*
X106735598Y80544530D01*
X107065372Y80585238D01*
X107197956Y80571024D01*
X107579413Y80435407D01*
X107902679Y80192814D01*
X108147049Y79858953D01*
X108153945Y79845758D01*
X108234111Y79569457D01*
X108233427Y79244427D01*
X108155471Y78918523D01*
X108071226Y78739265D01*
X107866379Y78491570D01*
X107586468Y78286997D01*
X107275367Y78151675D01*
X107015598Y78110606D01*
X106659586Y78171428D01*
X106326060Y78340866D01*
X106043150Y78599375D01*
X105838984Y78927413D01*
X105838550Y78928409D01*
X105719912Y79201010D01*
X103933132Y79201010D01*
X103133809Y77838005D01*
X102908316Y77452891D01*
X102701198Y77098014D01*
X102522378Y76790470D01*
X102381779Y76547352D01*
X102289324Y76385754D01*
X102258560Y76330283D01*
X102222338Y76223293D01*
X102242540Y76107024D01*
X102328236Y75937369D01*
X102345459Y75907729D01*
X102483134Y75557101D01*
X102509068Y75190962D01*
X102429308Y74836824D01*
X102249900Y74522196D01*
X101988084Y74281901D01*
X101733415Y74164125D01*
X101426610Y74094852D01*
X101119787Y74080816D01*
X100865063Y74128751D01*
X100849917Y74134860D01*
X100498472Y74345036D01*
X100247890Y74630787D01*
X100104435Y74982840D01*
X100077975Y75223990D01*
X100652995Y75223990D01*
X100752886Y74997085D01*
X100866263Y74865051D01*
X101062643Y74707226D01*
X101249410Y74648550D01*
X101289596Y74646970D01*
X101479103Y74687936D01*
X101670423Y74824031D01*
X101712929Y74865051D01*
X101885101Y75095712D01*
X101930025Y75321617D01*
X101848039Y75551373D01*
X101745150Y75686798D01*
X101593954Y75827150D01*
X101437617Y75885865D01*
X101289596Y75894812D01*
X101089853Y75874919D01*
X100942142Y75794801D01*
X100834042Y75686798D01*
X100680159Y75451025D01*
X100652995Y75223990D01*
X100077975Y75223990D01*
X100070909Y75288384D01*
X100126957Y75685615D01*
G37*
G36*
X110113275Y74899944D02*
G01*
X110307046Y75220970D01*
X110346616Y75266385D01*
X110472974Y75404739D01*
X110003617Y76212470D01*
X109534260Y77020202D01*
X106037782Y77020202D01*
X105950263Y76810740D01*
X105781439Y76550715D01*
X105524655Y76321819D01*
X105220156Y76150765D01*
X104908190Y76064266D01*
X104817374Y76058796D01*
X104570067Y76099277D01*
X104295898Y76203749D01*
X104059960Y76346758D01*
X104040541Y76362564D01*
X103802266Y76640395D01*
X103658535Y76974749D01*
X103618694Y77281373D01*
X104191645Y77281373D01*
X104245666Y77054492D01*
X104380283Y76871302D01*
X104572036Y76746615D01*
X104797470Y76695243D01*
X105033127Y76731998D01*
X105255549Y76871692D01*
X105271297Y76886985D01*
X105412536Y77074965D01*
X105458417Y77283277D01*
X105458788Y77308838D01*
X105400410Y77563546D01*
X105243582Y77766802D01*
X105015767Y77891712D01*
X104836579Y77918182D01*
X104554235Y77869689D01*
X104349859Y77720834D01*
X104241675Y77537133D01*
X104191645Y77281373D01*
X103618694Y77281373D01*
X103611619Y77335826D01*
X103663788Y77693825D01*
X103817313Y78018945D01*
X103905805Y78131119D01*
X104153259Y78319492D01*
X104474840Y78444300D01*
X104828654Y78496710D01*
X105172809Y78467890D01*
X105310294Y78427233D01*
X105564633Y78278138D01*
X105795307Y78051676D01*
X105948609Y77805934D01*
X106037782Y77597475D01*
X107924511Y77597475D01*
X108484843Y77596478D01*
X108929986Y77593085D01*
X109273026Y77586694D01*
X109527044Y77576704D01*
X109705124Y77562513D01*
X109820348Y77543518D01*
X109885800Y77519117D01*
X109902238Y77506477D01*
X109964590Y77421065D01*
X110076534Y77245536D01*
X110224772Y77001582D01*
X110396005Y76710895D01*
X110492076Y76544356D01*
X110990915Y75673232D01*
X111261480Y75673232D01*
X111617369Y75616362D01*
X111926751Y75460080D01*
X112177965Y75225883D01*
X112359353Y74935263D01*
X112459255Y74609717D01*
X112466010Y74270739D01*
X112367961Y73939824D01*
X112281757Y73792330D01*
X112011821Y73508547D01*
X111679128Y73323655D01*
X111309596Y73244367D01*
X110929141Y73277398D01*
X110665036Y73373489D01*
X110365649Y73586763D01*
X110156665Y73870503D01*
X110042199Y74200253D01*
X110027509Y74526158D01*
X110604031Y74526158D01*
X110619220Y74284663D01*
X110661749Y74177728D01*
X110835815Y73957765D01*
X111064576Y73835238D01*
X111317376Y73815448D01*
X111563559Y73903701D01*
X111685439Y74000622D01*
X111839934Y74232521D01*
X111883706Y74485229D01*
X111821106Y74728181D01*
X111656483Y74930809D01*
X111542529Y75004760D01*
X111292246Y75074465D01*
X111051452Y75040984D01*
X110841949Y74924791D01*
X110685541Y74746358D01*
X110604031Y74526158D01*
X110027509Y74526158D01*
X110026364Y74551553D01*
X110113275Y74899944D01*
G37*
%TO.C,TP4*%
X107750000Y25200000D02*
G75*
G03*
X107750000Y25200000I-1200000J0D01*
G01*
%TO.C,Y2*%
X87060000Y2820000D02*
X87060000Y7920000D01*
X74460000Y2820000D02*
X87060000Y2820000D01*
X87060000Y7920000D02*
X74460000Y7920000D01*
%TO.C,U2*%
X122238000Y20026000D02*
X123338000Y20026000D01*
X122238000Y20296000D02*
X122238000Y20026000D01*
X120738000Y13396000D02*
X122238000Y13396000D01*
X120738000Y20296000D02*
X122238000Y20296000D01*
X122238000Y13666000D02*
X125068000Y13666000D01*
X122238000Y13396000D02*
X122238000Y13666000D01*
%TO.C,U3*%
X89234000Y16596000D02*
X53554000Y16596000D01*
X53554000Y11296000D02*
X89234000Y11296000D01*
X89234000Y11296000D02*
X89234000Y16596000D01*
X53554000Y16596000D02*
X53554000Y14946000D01*
X53554000Y12946000D02*
X53554000Y11296000D01*
X53554000Y12946000D02*
G75*
G03*
X53554000Y14946000I0J1000000D01*
G01*
%TO.C,SW4*%
X90540000Y31156000D02*
X84740000Y31156000D01*
X90640000Y24656000D02*
X84640000Y24656000D01*
X84540000Y29206000D02*
X84540000Y26606000D01*
X82540000Y31206000D02*
X83540000Y31206000D01*
X90740000Y29206000D02*
X90740000Y26606000D01*
X82540000Y30206000D02*
X82540000Y31206000D01*
%TO.C,SW2*%
X55742000Y31410000D02*
X49942000Y31410000D01*
X49742000Y29460000D02*
X49742000Y26860000D01*
X47742000Y30460000D02*
X47742000Y31460000D01*
X55942000Y29460000D02*
X55942000Y26860000D01*
X55842000Y24910000D02*
X49842000Y24910000D01*
X47742000Y31460000D02*
X48742000Y31460000D01*
%TO.C,D1*%
X61825000Y2816000D02*
X64510000Y2816000D01*
X61825000Y4736000D02*
X61825000Y2816000D01*
X64510000Y4736000D02*
X61825000Y4736000D01*
%TO.C,J3*%
X132030000Y42130000D02*
X132030000Y29370000D01*
X132030000Y44730000D02*
X133360000Y44730000D01*
X132030000Y42130000D02*
X134690000Y42130000D01*
X134690000Y42130000D02*
X134690000Y29370000D01*
X132030000Y29370000D02*
X134690000Y29370000D01*
X132030000Y43400000D02*
X132030000Y44730000D01*
%TO.C,TP5*%
X112930000Y25010000D02*
G75*
G03*
X112930000Y25010000I-1200000J0D01*
G01*
%TO.C,TP1*%
X128410000Y24920000D02*
G75*
G03*
X128410000Y24920000I-1200000J0D01*
G01*
%TO.C,TP2*%
X15880000Y40760000D02*
G75*
G03*
X15880000Y40760000I-1200000J0D01*
G01*
%TO.C,SW1*%
X111060000Y34540000D02*
X111060000Y31940000D01*
X104860000Y34540000D02*
X104860000Y31940000D01*
X102860000Y36540000D02*
X103860000Y36540000D01*
X102860000Y35540000D02*
X102860000Y36540000D01*
X110960000Y29990000D02*
X104960000Y29990000D01*
X110860000Y36490000D02*
X105060000Y36490000D01*
%TD*%
%LPC*%
D14*
%TO.C,H4*%
X135000000Y5000000D03*
%TD*%
D15*
%TO.C,DS1*%
X59954000Y43654000D03*
D16*
X62494000Y43654000D03*
X65034000Y43654000D03*
X67574000Y43654000D03*
X70114000Y43654000D03*
X72654000Y43654000D03*
X75194000Y43654000D03*
X75194000Y58894000D03*
X72654000Y58894000D03*
X70114000Y58894000D03*
X67574000Y58894000D03*
X65034000Y58894000D03*
X62494000Y58894000D03*
X59954000Y58894000D03*
%TD*%
D17*
%TO.C,SW3*%
X66368000Y30156000D03*
X74368000Y30156000D03*
X66368000Y25656000D03*
X74368000Y25656000D03*
%TD*%
D18*
%TO.C,C4*%
X90240000Y4610000D03*
X90240000Y6310000D03*
%TD*%
D19*
%TO.C,TP6*%
X116930000Y25010000D03*
%TD*%
D20*
%TO.C,C2*%
X76630000Y20032000D03*
X78330000Y20032000D03*
%TD*%
D21*
%TO.C,J1*%
X32160000Y13665000D03*
D22*
X32160000Y16205000D03*
X32160000Y18745000D03*
X32160000Y21285000D03*
X32160000Y23825000D03*
X32160000Y26365000D03*
X32160000Y28905000D03*
%TD*%
D23*
%TO.C,Y1*%
X38618000Y17218000D03*
X38618000Y14718000D03*
%TD*%
D20*
%TO.C,C7*%
X127176000Y18762000D03*
X128876000Y18762000D03*
%TD*%
D24*
%TO.C,J2*%
X104968000Y15968000D03*
D25*
X107268000Y10668000D03*
X110968000Y13168000D03*
%TD*%
D26*
%TO.C,BT1*%
X19567984Y52473686D03*
D27*
X19567984Y72963686D03*
%TD*%
D15*
%TO.C,DS2*%
X59954000Y64349000D03*
D16*
X62494000Y64349000D03*
X65034000Y64349000D03*
X67574000Y64349000D03*
X70114000Y64349000D03*
X72654000Y64349000D03*
X75194000Y64349000D03*
X75194000Y79589000D03*
X72654000Y79589000D03*
X70114000Y79589000D03*
X67574000Y79589000D03*
X65034000Y79589000D03*
X62494000Y79589000D03*
X59954000Y79589000D03*
%TD*%
D28*
%TO.C,U4*%
X127015000Y60154000D03*
D29*
X124475000Y60154000D03*
X121935000Y60154000D03*
X119395000Y60154000D03*
X116855000Y60154000D03*
X114315000Y60154000D03*
X111775000Y60154000D03*
X109235000Y60154000D03*
X106695000Y60154000D03*
X104155000Y60154000D03*
X101615000Y60154000D03*
X99075000Y60154000D03*
X99075000Y52534000D03*
X101615000Y52534000D03*
X104155000Y52534000D03*
X106695000Y52534000D03*
X109235000Y52534000D03*
X111775000Y52534000D03*
X114315000Y52534000D03*
X116855000Y52534000D03*
X119395000Y52534000D03*
X121935000Y52534000D03*
X124475000Y52534000D03*
X127015000Y52534000D03*
%TD*%
D18*
%TO.C,R2*%
X111770000Y49330000D03*
X111770000Y47630000D03*
%TD*%
D20*
%TO.C,R4*%
X96950000Y30700000D03*
X98650000Y30700000D03*
%TD*%
D30*
%TO.C,R6*%
X33210000Y49105000D03*
X33210000Y45705000D03*
%TD*%
D19*
%TO.C,TP3*%
X19330000Y40690000D03*
%TD*%
D20*
%TO.C,C5*%
X127176000Y15460000D03*
X128876000Y15460000D03*
%TD*%
D14*
%TO.C,H2*%
X135000000Y85000000D03*
%TD*%
D20*
%TO.C,R5*%
X24720000Y28910000D03*
X26420000Y28910000D03*
%TD*%
%TO.C,R9*%
X61898000Y30446000D03*
X63598000Y30446000D03*
%TD*%
%TO.C,R13*%
X62660000Y6824000D03*
X64360000Y6824000D03*
%TD*%
D28*
%TO.C,U1*%
X41676000Y17228000D03*
D29*
X41676000Y14688000D03*
X41676000Y12148000D03*
X41676000Y9608000D03*
X49296000Y9608000D03*
X49296000Y12148000D03*
X49296000Y14688000D03*
X49296000Y17228000D03*
%TD*%
D14*
%TO.C,H3*%
X5000000Y5000000D03*
%TD*%
D19*
%TO.C,TP4*%
X106550000Y25200000D03*
%TD*%
D20*
%TO.C,R8*%
X44372000Y30700000D03*
X46072000Y30700000D03*
%TD*%
D14*
%TO.C,H1*%
X5000000Y85000000D03*
%TD*%
D31*
%TO.C,Y2*%
X84610000Y5370000D03*
X76110000Y5370000D03*
%TD*%
D20*
%TO.C,R11*%
X124890000Y35780000D03*
X126590000Y35780000D03*
%TD*%
D32*
%TO.C,U2*%
X123968000Y14566000D03*
D33*
X117668000Y16846000D03*
D32*
X123968000Y19126000D03*
%TD*%
D18*
%TO.C,R3*%
X57414000Y22660000D03*
X57414000Y20960000D03*
%TD*%
%TO.C,R1*%
X54874000Y22660000D03*
X54874000Y20960000D03*
%TD*%
D20*
%TO.C,R12*%
X79170000Y30446000D03*
X80870000Y30446000D03*
%TD*%
%TO.C,C6*%
X119810000Y30700000D03*
X121510000Y30700000D03*
%TD*%
D28*
%TO.C,U3*%
X54884000Y10136000D03*
D29*
X57424000Y10136000D03*
X59964000Y10136000D03*
X62504000Y10136000D03*
X65044000Y10136000D03*
X67584000Y10136000D03*
X70124000Y10136000D03*
X72664000Y10136000D03*
X75204000Y10136000D03*
X77744000Y10136000D03*
X80284000Y10136000D03*
X82824000Y10136000D03*
X85364000Y10136000D03*
X87904000Y10136000D03*
X87904000Y17756000D03*
X85364000Y17756000D03*
X82824000Y17756000D03*
X80284000Y17756000D03*
X77744000Y17756000D03*
X75204000Y17756000D03*
X72664000Y17756000D03*
X70124000Y17756000D03*
X67584000Y17756000D03*
X65044000Y17756000D03*
X62504000Y17756000D03*
X59964000Y17756000D03*
X57424000Y17756000D03*
X54884000Y17756000D03*
%TD*%
D17*
%TO.C,SW4*%
X83640000Y30156000D03*
X91640000Y30156000D03*
X83640000Y25656000D03*
X91640000Y25656000D03*
%TD*%
D18*
%TO.C,R7*%
X33210000Y38630000D03*
X33210000Y36930000D03*
%TD*%
D20*
%TO.C,R10*%
X124880000Y33320000D03*
X126580000Y33320000D03*
%TD*%
D17*
%TO.C,SW2*%
X48842000Y30410000D03*
X56842000Y30410000D03*
X48842000Y25910000D03*
X56842000Y25910000D03*
%TD*%
D34*
%TO.C,D1*%
X62572500Y3776000D03*
X64447500Y3776000D03*
%TD*%
D21*
%TO.C,J3*%
X133360000Y43400000D03*
D22*
X133360000Y40860000D03*
X133360000Y38320000D03*
X133360000Y35780000D03*
X133360000Y33240000D03*
X133360000Y30700000D03*
%TD*%
D18*
%TO.C,C3*%
X71950000Y4510000D03*
X71950000Y6210000D03*
%TD*%
D19*
%TO.C,TP5*%
X111730000Y25010000D03*
%TD*%
%TO.C,TP1*%
X127210000Y24920000D03*
%TD*%
%TO.C,TP2*%
X14680000Y40760000D03*
%TD*%
D20*
%TO.C,C1*%
X72566000Y20032000D03*
X74266000Y20032000D03*
%TD*%
D17*
%TO.C,SW1*%
X103960000Y35490000D03*
X111960000Y35490000D03*
X103960000Y30990000D03*
X111960000Y30990000D03*
%TD*%
M02*
